<svg width="81" height="80" viewBox="0 0 81 80" fill="none" xmlns="http://www.w3.org/2000/svg">
<circle cx="40.2051" cy="40" r="40" fill="#274F46"/>
<g clip-path="url(#clip0_490_877)">
<rect x="16.2051" y="16" width="48" height="48" rx="24" fill="#71E07B"/>
<path d="M52.205 39.3334C52.2096 41.0932 51.7985 42.8292 51.005 44.4C50.0643 46.2823 48.618 47.8656 46.8283 48.9724C45.0386 50.0792 42.976 50.6659 40.8717 50.6667C39.1119 50.6713 37.3759 50.2601 35.8051 49.4667L28.2051 52L30.7384 44.4C29.945 42.8292 29.5338 41.0932 29.5384 39.3334C29.5392 37.229 30.1259 35.1665 31.2327 33.3768C32.3395 31.587 33.9227 30.1408 35.8051 29.2C37.3759 28.4066 39.1119 27.9954 40.8717 28H41.5384C44.3175 28.1534 46.9424 29.3264 48.9106 31.2945C50.8787 33.2626 52.0517 35.8876 52.205 38.6667V39.3334Z" stroke="white" stroke-width="1.5" stroke-linecap="round" stroke-linejoin="round"/>
<g clip-path="url(#clip1_490_877)">
<path d="M46.9555 42.87V44.62C46.9562 44.7825 46.9205 44.9433 46.8508 45.0921C46.781 45.241 46.6788 45.3746 46.5505 45.4844C46.4222 45.5943 46.2708 45.6779 46.1059 45.7299C45.941 45.782 45.7663 45.8013 45.593 45.7867C43.6697 45.5916 41.8223 44.9783 40.1992 43.9958C38.6891 43.1002 37.4088 41.9053 36.4492 40.4958C35.3929 38.9741 34.7356 37.2414 34.5305 35.4383C34.5148 35.277 34.5354 35.1145 34.5908 34.961C34.6462 34.8075 34.7352 34.6664 34.8522 34.5468C34.9692 34.4272 35.1116 34.3316 35.2703 34.2662C35.4291 34.2007 35.6007 34.1668 35.7742 34.1667H37.6492C37.9525 34.1639 38.2466 34.2641 38.4766 34.4487C38.7065 34.6333 38.8568 34.8897 38.8992 35.17C38.9784 35.7301 39.1251 36.2799 39.3367 36.8092C39.4208 37.018 39.439 37.2449 39.3892 37.463C39.3393 37.6812 39.2235 37.8814 39.0555 38.04L38.2617 38.7808C39.1514 40.2413 40.447 41.4504 42.0117 42.2808L42.8055 41.54C42.9754 41.3832 43.1899 41.2751 43.4237 41.2286C43.6574 41.182 43.9005 41.199 44.1242 41.2775C44.6913 41.475 45.2804 41.612 45.8805 41.6858C46.1841 41.7258 46.4613 41.8686 46.6595 42.0869C46.8578 42.3052 46.9631 42.5839 46.9555 42.87Z" stroke="white" stroke-width="1.2" stroke-linecap="round" stroke-linejoin="round"/>
</g>
</g>
<path d="M13.3844 31.5284L6.68577 28.6962L7.02873 27.885L13.0078 30.413L14.3243 27.2992L15.0439 27.6034L13.3844 31.5284ZM16.6912 25.2602C16.4023 25.6992 16.0561 26.0141 15.6527 26.2049C15.2487 26.3924 14.815 26.457 14.3518 26.3987C13.8879 26.337 13.4225 26.1526 12.9559 25.8454C12.4892 25.5382 12.1339 25.1824 11.8899 24.7781C11.6452 24.3704 11.5239 23.9476 11.5259 23.5096C11.5273 23.0684 11.6633 22.6421 11.9341 22.2308C12.0903 21.9935 12.2841 21.7852 12.5155 21.6059C12.7469 21.4266 13.014 21.3006 13.317 21.2279C13.6179 21.154 13.9508 21.1563 14.3157 21.2349C14.6806 21.3135 15.0756 21.4928 15.5008 21.7726L15.7974 21.9679L13.4856 25.4799L12.8805 25.0815L14.7237 22.2815C14.4666 22.1122 14.2034 22.0127 13.934 21.9827C13.6659 21.9508 13.4117 21.9904 13.1714 22.1014C12.9323 22.2105 12.7295 22.3916 12.5629 22.6447C12.3794 22.9235 12.2898 23.2104 12.2941 23.5051C12.2978 23.7967 12.3736 24.069 12.5215 24.3223C12.6694 24.5755 12.8689 24.7848 13.12 24.9501L13.5234 25.2157C13.8675 25.4422 14.1982 25.5748 14.5156 25.6137C14.8323 25.6493 15.1232 25.6013 15.3884 25.4697C15.6516 25.3369 15.8763 25.129 16.0624 24.8463C16.1834 24.6624 16.2671 24.4793 16.3133 24.2972C16.3588 24.1118 16.365 23.9302 16.3318 23.7524C16.2966 23.5734 16.2194 23.4021 16.1003 23.2387L16.7353 22.6873C16.9178 22.9095 17.0408 23.1619 17.1041 23.4445C17.1655 23.7259 17.1633 24.022 17.0975 24.333C17.0297 24.6426 16.8943 24.9517 16.6912 25.2602ZM15.8247 17.3458L16.3524 17.8211L14.4608 19.9216L13.933 19.4463L15.8247 17.3458ZM13.5133 17.9596L14.0741 17.3368L17.9373 20.8159C18.1132 20.9744 18.2681 21.0677 18.402 21.0959C18.5358 21.1207 18.654 21.1061 18.7568 21.0522C18.8594 20.9948 18.9519 20.9204 19.0343 20.8289C19.0961 20.7603 19.1433 20.7009 19.1758 20.6506C19.2066 20.5987 19.2313 20.5571 19.2498 20.526L19.9233 20.9031C19.9011 20.9596 19.8638 21.0328 19.8115 21.1227C19.761 21.2142 19.6835 21.318 19.5789 21.4341C19.4205 21.61 19.2274 21.7484 18.9997 21.8491C18.7735 21.9481 18.5331 21.9833 18.2785 21.9547C18.0255 21.9244 17.7811 21.8031 17.5454 21.5908L13.5133 17.9596ZM16.3614 14.2846L16.7913 14.7577C16.9218 14.9013 17.0349 15.0785 17.1304 15.2892C17.2261 15.4966 17.2933 15.7218 17.3319 15.965C17.3708 16.2049 17.371 16.4445 17.3328 16.684L16.748 16.7164C16.7151 16.4585 16.6617 16.2079 16.5878 15.9647C16.5141 15.7182 16.3889 15.4977 16.2122 15.3032L15.7727 14.8197L16.3614 14.2846ZM21.7796 13.9547L21.3156 14.5847C21.2012 14.5146 21.0713 14.4612 20.9258 14.4243C20.7807 14.3841 20.6225 14.3811 20.4511 14.4152C20.2798 14.4493 20.0978 14.5411 19.9052 14.6907C19.6416 14.8954 19.469 15.1268 19.3876 15.3848C19.3066 15.6395 19.338 15.8594 19.4818 16.0445C19.6095 16.2091 19.7703 16.2926 19.964 16.295C20.1577 16.2975 20.4064 16.2318 20.7101 16.0979L21.4716 15.7584C21.9294 15.5528 22.3275 15.473 22.6659 15.519C23.0028 15.5631 23.2882 15.7356 23.522 16.0367C23.7136 16.2835 23.8139 16.5594 23.8228 16.8642C23.8335 17.1675 23.7562 17.4733 23.5909 17.7815C23.4256 18.0897 23.1755 18.3738 22.8408 18.6337C22.4014 18.9749 21.9636 19.1619 21.5276 19.1947C21.0915 19.2276 20.6928 19.0905 20.3316 18.7836L20.8379 18.1386C21.0778 18.3241 21.326 18.4101 21.5824 18.3968C21.8407 18.3821 22.1055 18.2695 22.3766 18.059C22.6851 17.8194 22.8793 17.5637 22.959 17.292C23.0392 17.017 23.0074 16.7869 22.8637 16.6018C22.7475 16.4522 22.5979 16.3675 22.4148 16.3479C22.2302 16.3263 22.0099 16.3745 21.7538 16.4924L20.905 16.8817C20.4379 17.0945 20.0355 17.1746 19.6979 17.122C19.3608 17.0661 19.0768 16.8895 18.8459 16.5922C18.6572 16.3491 18.5585 16.081 18.5498 15.788C18.543 15.4936 18.6169 15.2009 18.7717 14.9099C18.9282 14.6175 19.158 14.3537 19.4609 14.1185C19.8873 13.7874 20.2946 13.621 20.6829 13.6193C21.073 13.6161 21.4386 13.7279 21.7796 13.9547ZM29.0634 15.0414C28.6426 15.2133 28.2277 15.2588 27.8187 15.1778C27.4088 15.0947 27.0332 14.8952 26.6919 14.5794C26.3497 14.2614 26.0694 13.8351 25.8509 13.3003C25.6342 12.77 25.5372 12.2726 25.5597 11.8082C25.5822 11.3438 25.7122 10.939 25.9497 10.5939C26.1872 10.2488 26.5185 9.98941 26.9437 9.8157C27.2724 9.68139 27.5545 9.63008 27.79 9.66176C28.0267 9.69035 28.2237 9.75309 28.3809 9.84997C28.5394 9.94376 28.6651 10.0229 28.7579 10.0872L28.8236 10.0604L27.8082 7.57513L28.5841 7.25817L31.3347 13.9907L30.5852 14.2969L30.2682 13.5211L30.1762 13.5587C30.1568 13.674 30.1232 13.8233 30.0753 14.0065C30.0265 14.1876 29.9269 14.3727 29.7767 14.562C29.6255 14.7491 29.3877 14.9089 29.0634 15.0414ZM28.8838 14.3015C29.195 14.1744 29.4249 13.9858 29.5734 13.7359C29.721 13.4838 29.7916 13.1902 29.7852 12.8553C29.7779 12.5181 29.6963 12.1589 29.5405 11.7776C29.3865 11.4006 29.197 11.0932 28.9719 10.8552C28.7459 10.6151 28.4933 10.46 28.2141 10.39C27.9339 10.3177 27.6361 10.3461 27.3205 10.475C26.9918 10.6093 26.7523 10.8056 26.6021 11.0639C26.4532 11.3191 26.3826 11.6126 26.3903 11.9445C26.3993 12.2733 26.4763 12.6152 26.6214 12.9702C26.7682 13.3296 26.9564 13.6338 27.186 13.8827C27.4168 14.1285 27.6761 14.2937 27.9638 14.3782C28.2528 14.4596 28.5595 14.434 28.8838 14.3015ZM32.4111 13.6275L31.0611 8.34262L31.8731 8.13521L33.2231 13.4201L32.4111 13.6275ZM31.249 7.35635C31.0908 7.39678 30.9405 7.37773 30.7983 7.29922C30.6584 7.22012 30.5691 7.10488 30.5304 6.95349C30.4917 6.8021 30.5148 6.65815 30.5997 6.52163C30.6868 6.38453 30.8095 6.29576 30.9678 6.25533C31.1261 6.21491 31.2752 6.23424 31.4151 6.31334C31.5573 6.39185 31.6478 6.50681 31.6865 6.65819C31.7251 6.80958 31.7009 6.95383 31.6137 7.09093C31.5289 7.22745 31.4073 7.31592 31.249 7.35635ZM37.5822 8.52079L36.863 8.82875C36.7999 8.7104 36.715 8.59845 36.6082 8.49291C36.5035 8.38472 36.3686 8.30192 36.2037 8.2445C36.0387 8.18708 35.8353 8.17403 35.5934 8.20533C35.2624 8.24819 34.9964 8.36021 34.7955 8.54139C34.5966 8.71992 34.5122 8.9254 34.5423 9.15783C34.569 9.36444 34.6653 9.51789 34.831 9.61818C34.9968 9.71846 35.2445 9.78785 35.5741 9.82634L36.4026 9.91961C36.9015 9.97439 37.2851 10.1073 37.5535 10.3185C37.8217 10.5273 37.9802 10.8206 38.0291 11.1986C38.0693 11.5086 38.0159 11.7972 37.8691 12.0644C37.7246 12.3314 37.503 12.5558 37.2043 12.7377C36.9056 12.9196 36.5461 13.0378 36.1258 13.0922C35.5741 13.1636 35.1019 13.103 34.7094 12.9103C34.3168 12.7177 34.0426 12.3975 33.8868 11.9498L34.6501 11.6504C34.7629 11.9318 34.9332 12.1318 35.161 12.2503C35.3912 12.3685 35.6765 12.4056 36.0169 12.3615C36.4043 12.3113 36.7012 12.1894 36.9077 11.9955C37.1162 11.799 37.2054 11.5846 37.1753 11.3521C37.151 11.1643 37.0649 11.0155 36.917 10.9058C36.7688 10.7937 36.5544 10.7235 36.2739 10.6954L35.3449 10.6008C34.8344 10.5476 34.4469 10.4127 34.1825 10.1963C33.9202 9.97719 33.7649 9.681 33.7166 9.30769C33.6771 9.00247 33.7278 8.72138 33.8688 8.46441C34.0122 8.20713 34.2243 7.99228 34.5051 7.81985C34.7883 7.64712 35.1201 7.53614 35.5004 7.4869C36.0357 7.4176 36.4712 7.48058 36.8068 7.67585C37.1448 7.87082 37.4032 8.15247 37.5822 8.52079ZM41.0661 12.9077C40.5552 12.8865 40.1202 12.7475 39.7613 12.4909C39.4023 12.2343 39.1323 11.8902 38.9512 11.4585C38.7701 11.0268 38.6909 10.539 38.7135 9.99494C38.7365 9.44144 38.8586 8.95722 39.0796 8.54228C39.3031 8.12507 39.6031 7.80464 39.9797 7.58098C40.3587 7.35506 40.7942 7.25232 41.2862 7.27278C41.6694 7.28872 42.0118 7.37404 42.3134 7.52875C42.615 7.68346 42.8587 7.89263 43.0444 8.15626C43.2301 8.41988 43.3395 8.72298 43.3726 9.06557L42.5353 9.03075C42.4817 8.77972 42.349 8.55384 42.137 8.3531C41.9274 8.15009 41.6381 8.04091 41.2691 8.02556C40.9427 8.01199 40.653 8.08524 40.3999 8.24532C40.1493 8.40313 39.949 8.63293 39.799 8.93473C39.6515 9.23425 39.5692 9.5898 39.552 10.0014C39.5345 10.4224 39.5855 10.7918 39.705 11.1095C39.8268 11.4274 40.006 11.6777 40.2424 11.8605C40.4813 12.0434 40.7662 12.1417 41.0974 12.1555C41.315 12.1646 41.5141 12.1349 41.6946 12.0666C41.8752 11.9983 42.0299 11.8957 42.1588 11.7589C42.2877 11.6221 42.3823 11.4555 42.4426 11.2589L43.28 11.2938C43.2193 11.6135 43.0901 11.8984 42.8926 12.1484C42.6974 12.3962 42.4442 12.5895 42.1327 12.7281C41.8238 12.8646 41.4682 12.9244 41.0661 12.9077ZM47.6039 11.5726L48.319 8.42845L49.1362 8.61432L47.9265 13.933L47.1093 13.7471L47.314 12.8468L47.2586 12.8342C47.0726 13.076 46.8264 13.2616 46.5202 13.391C46.2145 13.5181 45.8608 13.536 45.4591 13.4446C45.1267 13.369 44.8478 13.2291 44.6223 13.0249C44.3974 12.8183 44.2446 12.5505 44.1641 12.2214C44.0841 11.89 44.0955 11.4981 44.1984 11.0456L44.9671 7.66605L45.7843 7.85192L45.0282 11.1761C44.94 11.5639 44.9782 11.8979 45.1427 12.1781C45.3095 12.4589 45.5625 12.6378 45.9019 12.715C46.105 12.7612 46.3234 12.7563 46.5571 12.7002C46.7931 12.6446 47.0071 12.5257 47.1991 12.3436C47.3933 12.162 47.5283 11.905 47.6039 11.5726ZM53.9717 11.8067L53.1953 11.7102C53.2004 11.5762 53.1835 11.4368 53.1445 11.2918C53.1085 11.1456 53.0338 11.0061 52.9202 10.8734C52.8066 10.7406 52.6375 10.6268 52.4129 10.532C52.1053 10.4022 51.8191 10.3649 51.5543 10.4202C51.2925 10.4742 51.1161 10.6091 51.0249 10.825C50.9439 11.017 50.9497 11.198 51.0424 11.3682C51.135 11.5383 51.314 11.7231 51.5793 11.9224L52.2479 12.4205C52.6512 12.7192 52.9156 13.0274 53.0411 13.345C53.1674 13.6604 53.1565 13.9937 53.0083 14.3449C52.8868 14.6328 52.6953 14.8552 52.4338 15.0121C52.1745 15.1699 51.87 15.252 51.5203 15.2586C51.1706 15.2652 50.8005 15.1861 50.4101 15.0213C49.8976 14.805 49.5203 14.5147 49.2783 14.1505C49.0363 13.7862 48.9608 13.3715 49.0518 12.9062L49.862 13.0323C49.8176 13.3323 49.864 13.5908 50.001 13.808C50.1403 14.026 50.368 14.2018 50.6843 14.3353C51.0441 14.4872 51.3621 14.5315 51.6381 14.4681C51.9172 14.4034 52.1023 14.2632 52.1935 14.0472C52.2671 13.8727 52.2677 13.7008 52.1953 13.5315C52.1238 13.36 51.9739 13.1914 51.7458 13.0257L50.9911 12.4759C50.5769 12.1726 50.3102 11.8609 50.1909 11.5407C50.0748 11.2193 50.0899 10.8852 50.2362 10.5384C50.3559 10.2549 50.5414 10.0376 50.7927 9.88673C51.0461 9.73674 51.3376 9.65804 51.6671 9.65064C51.9987 9.64415 52.3412 9.71547 52.6946 9.86461C53.1919 10.0745 53.5363 10.3483 53.7277 10.6861C53.9214 11.0248 54.0027 11.3984 53.9717 11.8067ZM58.515 14.55L57.7645 14.3286C57.7914 14.1972 57.7974 14.0568 57.7824 13.9074C57.7708 13.7573 57.7197 13.6075 57.6292 13.4581C57.5387 13.3087 57.3903 13.1689 57.1841 13.0388C56.9017 12.8608 56.6254 12.7775 56.3551 12.7889C56.088 12.7996 55.892 12.9041 55.767 13.1023C55.6558 13.2786 55.6321 13.4581 55.6959 13.6411C55.7596 13.824 55.9062 14.0354 56.1356 14.2753L56.7144 14.8754C57.0637 15.2357 57.2745 15.5827 57.3467 15.9165C57.4201 16.2483 57.3551 16.5754 57.1518 16.8978C56.9851 17.1621 56.76 17.3504 56.4765 17.4627C56.1949 17.5762 55.8811 17.6078 55.535 17.5575C55.1889 17.5071 54.8367 17.3689 54.4782 17.1429C54.0076 16.8461 53.6826 16.4984 53.503 16.0996C53.3234 15.7009 53.3164 15.2794 53.4818 14.8351L54.2607 15.0913C54.1682 15.38 54.1719 15.6426 54.2718 15.8791C54.3737 16.117 54.5699 16.3274 54.8602 16.5105C55.1906 16.7189 55.4971 16.8143 55.7798 16.7966C56.0657 16.7782 56.2712 16.6699 56.3962 16.4716C56.4972 16.3114 56.5258 16.1419 56.4818 15.9631C56.4391 15.7822 56.3187 15.5915 56.1205 15.3909L55.4652 14.7258C55.1059 14.3592 54.8934 14.0082 54.8277 13.6729C54.7654 13.3369 54.8346 13.0097 55.0354 12.6913C55.1995 12.431 55.4179 12.2468 55.6903 12.1388C55.9648 12.032 56.2652 12.0017 56.5915 12.0479C56.9198 12.0955 57.2461 12.2215 57.5705 12.4261C58.0271 12.714 58.3224 13.0402 58.4564 13.4046C58.5924 13.7703 58.612 14.1521 58.515 14.55ZM57.5928 22.0066C57.4958 21.9028 57.4179 21.8022 57.3592 21.7048C57.2987 21.609 57.2618 21.5382 57.2482 21.4925L57.9332 21.1437C58.0343 21.3279 58.1433 21.4723 58.2604 21.5767C58.3775 21.6811 58.5231 21.7346 58.6972 21.7371C58.8712 21.7429 59.0942 21.6884 59.366 21.5736L59.784 21.3966L62.4111 16.1784L63.032 16.8424L60.8856 20.911L60.9244 20.9525L65.1276 19.0834L65.7485 19.7474L59.6021 22.3252C59.3252 22.4415 59.0667 22.5065 58.8267 22.5203C58.585 22.5356 58.3618 22.4997 58.157 22.4124C57.9539 22.3269 57.7658 22.1916 57.5928 22.0066ZM62.9636 25.6233C62.6982 25.2086 62.564 24.7815 62.561 24.3421C62.5593 23.9047 62.6798 23.4847 62.9225 23.082C63.1664 22.6814 63.5256 22.3292 64.0002 22.0255C64.4788 21.7192 64.952 21.5386 65.42 21.4837C65.8892 21.4307 66.3221 21.4966 66.7185 21.6813C67.1163 21.868 67.4479 22.1688 67.7134 22.5835C67.9788 22.9983 68.1124 23.4244 68.114 23.8618C68.117 24.3012 67.9955 24.7218 67.7496 25.1238C67.505 25.5277 67.1434 25.8828 66.6648 26.189C66.1902 26.4928 65.7193 26.6705 65.2521 26.7221C64.7861 26.7758 64.3542 26.7093 63.9565 26.5226C63.56 26.3378 63.229 26.0381 62.9636 25.6233ZM63.5977 25.2175C63.7993 25.5326 64.046 25.7401 64.3377 25.8401C64.6293 25.9402 64.9381 25.9548 65.2638 25.8841C65.5895 25.8133 65.906 25.6797 66.213 25.4831C66.5201 25.2866 66.775 25.0546 66.9777 24.7872C67.1803 24.5198 67.2983 24.232 67.3317 23.924C67.365 23.616 67.2809 23.3044 67.0793 22.9894C66.8776 22.6743 66.63 22.4674 66.3363 22.3687C66.0426 22.2699 65.7319 22.2565 65.4042 22.3286C65.0764 22.4006 64.759 22.5349 64.4519 22.7314C64.1449 22.9279 63.891 23.1593 63.6903 23.4254C63.4896 23.6916 63.3736 23.978 63.3423 24.2848C63.3109 24.5916 63.3961 24.9025 63.5977 25.2175ZM67.9845 30.5339L70.9776 29.3346L71.2893 30.1126L66.2261 32.1414L65.9144 31.3634L66.7715 31.02L66.7503 30.9673C66.4457 30.9516 66.153 30.8547 65.8725 30.6763C65.5941 30.4971 65.3783 30.2164 65.2251 29.834C65.0983 29.5175 65.0548 29.2085 65.0946 28.9069C65.1366 28.6044 65.2701 28.3265 65.495 28.0731C65.7221 27.8189 66.0511 27.6055 66.4818 27.4329L69.699 26.1438L70.0108 26.9217L66.8463 28.1897C66.4771 28.3376 66.224 28.5589 66.087 28.8535C65.9509 29.1504 65.9476 29.4603 66.077 29.7833C66.1545 29.9767 66.2827 30.1536 66.4618 30.314C66.6417 30.4765 66.8611 30.585 67.1201 30.6393C67.3799 30.6959 67.6681 30.6608 67.9845 30.5339ZM66.5167 33.0661L71.8287 31.8272L72.0126 32.6157L71.2103 32.8029L71.2232 32.8582C71.5086 32.8937 71.7627 33.0192 71.9856 33.2346C72.2084 33.4501 72.357 33.7169 72.4312 34.035C72.4451 34.095 72.4615 34.1702 72.4801 34.2606C72.4988 34.3511 72.5112 34.4199 72.5173 34.4671L71.6873 34.6607C71.6878 34.6314 71.6834 34.5656 71.6741 34.4632C71.6677 34.3626 71.6518 34.2581 71.6265 34.1498C71.5663 33.8916 71.4584 33.6736 71.3027 33.496C71.1498 33.3202 70.9652 33.1955 70.7487 33.122C70.5351 33.0503 70.3084 33.0424 70.0686 33.0983L66.7071 33.8823L66.5167 33.0661ZM67.4152 38.4699L72.8617 38.7656L72.8178 39.574L71.9668 39.5278L71.9629 39.5988C72.2475 39.728 72.4633 39.9235 72.6104 40.1851C72.7597 40.4469 72.8248 40.7551 72.8056 41.1097C72.7861 41.469 72.6883 41.7637 72.5122 41.9936C72.3383 42.226 72.1024 42.4016 71.8043 42.5206L71.8012 42.5773C72.075 42.7321 72.287 42.9534 72.4373 43.2413C72.59 43.5294 72.6558 43.8684 72.6346 44.2585C72.6082 44.7455 72.4341 45.1355 72.1123 45.4286C71.7929 45.7219 71.3129 45.8511 70.6723 45.8163L67.0271 45.6184L67.0725 44.7816L70.7177 44.9795C71.1196 45.0013 71.4128 44.907 71.5973 44.6965C71.7818 44.486 71.8821 44.2319 71.8983 43.934C71.9191 43.5511 71.8193 43.2481 71.5991 43.0251C71.3812 42.8023 71.0962 42.6813 70.7439 42.6622L67.198 42.4697L67.2442 41.6186L70.9745 41.8212C71.2842 41.838 71.5391 41.7511 71.7391 41.5604C71.9415 41.3698 72.0513 41.1162 72.0685 40.7994C72.0803 40.5819 72.0334 40.3755 71.9278 40.1801C71.8221 39.9871 71.6696 39.827 71.4702 39.7C71.2731 39.5755 71.0409 39.506 70.7738 39.4915L67.3697 39.3067L67.4152 38.4699ZM66.1807 48.3594C66.3191 47.8869 66.5531 47.5052 66.8825 47.2144C67.2113 46.9259 67.6072 46.741 68.0701 46.6595C68.5325 46.5804 69.034 46.62 69.5747 46.7785C70.1199 46.9382 70.5669 47.1765 70.9157 47.4933C71.2638 47.8124 71.4984 48.1821 71.6194 48.6025C71.7398 49.0251 71.7308 49.4726 71.5923 49.9452C71.4538 50.4177 71.2202 50.7983 70.8915 51.0868C70.562 51.3776 70.165 51.5622 69.7004 51.6407C69.2352 51.7215 68.7299 51.682 68.1847 51.5222C67.6439 51.3637 67.2007 51.1253 66.8549 50.8069C66.5084 50.4907 66.2749 50.1214 66.1545 49.6988C66.0335 49.2784 66.0422 48.832 66.1807 48.3594ZM66.9031 48.5711C66.7979 48.9301 66.8034 49.2524 66.9195 49.5381C67.0356 49.8237 67.2273 50.0662 67.4946 50.2654C67.7619 50.4646 68.0705 50.6154 68.4203 50.7179C68.7702 50.8205 69.1125 50.8603 69.4473 50.8375C69.7821 50.8148 70.0766 50.7148 70.3308 50.5376C70.585 50.3605 70.7647 50.0925 70.8699 49.7335C70.975 49.3745 70.9684 49.0519 70.85 48.7656C70.7316 48.4792 70.5377 48.2362 70.2681 48.0363C69.9986 47.8364 69.6889 47.6852 69.339 47.5827C68.9891 47.4802 68.6479 47.4407 68.3154 47.4641C67.9829 47.4876 67.6907 47.5882 67.4388 47.766C67.1869 47.9438 67.0083 48.2122 66.9031 48.5711ZM68.2649 57.567L64.3048 53.3081L64.6889 52.5473L70.4672 53.205L70.0575 54.0165L65.4987 53.4017L65.4731 53.4524L68.6747 56.7554L68.2649 57.567ZM61.7492 57.0784C62.0631 56.6569 62.4269 56.3625 62.8406 56.1953C63.2548 56.0315 63.6914 55.9921 64.1505 56.0771C64.6101 56.1655 65.064 56.3765 65.5121 56.7101C65.9603 57.0438 66.2945 57.4195 66.5147 57.8373C66.7354 58.2584 66.832 58.6876 66.8047 59.1247C66.7778 59.5651 66.6173 59.9828 66.3233 60.3778C66.1536 60.6057 65.9481 60.8024 65.7067 60.968C65.4653 61.1336 65.1913 61.244 64.8847 61.299C64.58 61.3555 64.2477 61.3339 63.888 61.2343C63.5283 61.1347 63.1443 60.9329 62.736 60.629L62.4512 60.4169L64.9622 57.0445L65.5432 57.4771L63.5412 60.1659C63.7881 60.3497 64.0451 60.4643 64.3123 60.5098C64.5781 60.5572 64.8342 60.5324 65.0805 60.4354C65.3255 60.3403 65.5384 60.1713 65.7194 59.9282C65.9188 59.6605 66.0248 59.3793 66.0375 59.0847C66.0507 58.7935 65.9908 58.5172 65.8577 58.2558C65.7247 57.9945 65.5376 57.774 65.2965 57.5944L64.9091 57.306C64.5787 57.06 64.2562 56.9084 63.9416 56.8513C63.6275 56.7975 63.3343 56.8286 63.0619 56.9446C62.7915 57.062 62.5552 57.2565 62.353 57.528C62.2216 57.7046 62.1275 57.8825 62.0708 58.0617C62.0146 58.2442 61.998 58.4251 62.0209 58.6045C62.0456 58.7852 62.1128 58.9607 62.2223 59.1307L61.5565 59.6444C61.3871 59.4121 61.2789 59.153 61.232 58.8672C61.187 58.5828 61.2063 58.2872 61.29 57.9806C61.3756 57.6754 61.5286 57.3746 61.7492 57.0784Z" fill="#F5F2EE"/>
<defs>
<clipPath id="clip0_490_877">
<rect x="16.2051" y="16" width="48" height="48" rx="24" fill="white"/>
</clipPath>
<clipPath id="clip1_490_877">
<rect width="15" height="14" fill="white" transform="translate(33.2051 33)"/>
</clipPath>
</defs>
</svg>
