<svg width="101" height="99" viewBox="0 0 101 99" fill="none" xmlns="http://www.w3.org/2000/svg">
<circle cx="45.7949" cy="53" r="40" fill="#274F46"/>
<g clip-path="url(#clip0_298_955)">
<rect x="21.7949" y="29" width="48" height="48" rx="24" fill="#71E07B"/>
<path d="M57.7949 52.3334C57.7995 54.0932 57.3883 55.8292 56.5949 57.4C55.6541 59.2823 54.2079 60.8656 52.4182 61.9724C50.6284 63.0792 48.5659 63.6659 46.4616 63.6667C44.7017 63.6713 42.9657 63.2601 41.3949 62.4667L33.7949 65L36.3283 57.4C35.5348 55.8292 35.1237 54.0932 35.1283 52.3334C35.1291 50.229 35.7157 48.1665 36.8225 46.3768C37.9294 44.587 39.5126 43.1408 41.3949 42.2C42.9657 41.4066 44.7017 40.9954 46.4616 41H47.1282C49.9074 41.1534 52.5323 42.3264 54.5004 44.2945C56.4685 46.2626 57.6416 48.8876 57.7949 51.6667V52.3334Z" stroke="white" stroke-width="1.5" stroke-linecap="round" stroke-linejoin="round"/>
<g clip-path="url(#clip1_298_955)">
<path d="M52.5453 55.87V57.62C52.546 57.7825 52.5104 57.9433 52.4406 58.0921C52.3709 58.241 52.2686 58.3746 52.1404 58.4844C52.0121 58.5943 51.8607 58.6779 51.6958 58.7299C51.5309 58.782 51.3562 58.8013 51.1828 58.7867C49.2596 58.5916 47.4122 57.9783 45.7891 56.9958C44.2789 56.1002 42.9986 54.9053 42.0391 53.4958C40.9828 51.9741 40.3255 50.2414 40.1203 48.4383C40.1047 48.277 40.1252 48.1145 40.1806 47.961C40.236 47.8075 40.325 47.6664 40.442 47.5468C40.559 47.4272 40.7014 47.3316 40.8602 47.2662C41.0189 47.2007 41.1905 47.1668 41.3641 47.1667H43.2391C43.5424 47.1639 43.8364 47.2641 44.0664 47.4487C44.2964 47.6333 44.4466 47.8897 44.4891 48.17C44.5682 48.7301 44.715 49.2799 44.9266 49.8092C45.0106 50.018 45.0288 50.2449 44.979 50.463C44.9292 50.6812 44.8133 50.8814 44.6453 51.04L43.8516 51.7808C44.7413 53.2413 46.0368 54.4504 47.6016 55.2808L48.3953 54.54C48.5652 54.3832 48.7798 54.2751 49.0135 54.2286C49.2472 54.182 49.4904 54.199 49.7141 54.2775C50.2811 54.475 50.8703 54.612 51.4703 54.6858C51.7739 54.7258 52.0512 54.8686 52.2494 55.0869C52.4476 55.3052 52.5529 55.5839 52.5453 55.87Z" stroke="white" stroke-width="1.2" stroke-linecap="round" stroke-linejoin="round"/>
</g>
</g>
<path d="M16.4589 53.0756L9.06205 52.1685L9.6829 47.5635L10.6436 47.6813L10.173 51.172L12.1956 51.4201L12.4182 49.7685C12.4921 49.2203 12.6439 48.7661 12.8737 48.4057C13.1037 48.0428 13.3949 47.7804 13.7471 47.6183C14.0997 47.4538 14.4964 47.3986 14.937 47.4526C15.3776 47.5067 15.7527 47.6565 16.0622 47.9022C16.3721 48.1455 16.5962 48.4712 16.7346 48.8791C16.8733 49.2847 16.9057 49.7616 16.8318 50.3097L16.4589 53.0756ZM15.67 51.8462L15.8927 50.1945C15.9355 49.8772 15.909 49.6015 15.8133 49.3673C15.7179 49.1308 15.5779 48.9438 15.3933 48.8063C15.209 48.6664 15.0025 48.5824 14.7738 48.5544C14.4415 48.5136 14.139 48.606 13.8663 48.8316C13.5911 49.0569 13.4215 49.4076 13.3573 49.8836L13.1346 51.5352L15.67 51.8462Z" fill="#F5F2EE"/>
<path d="M18.5134 44.8218C18.3295 45.3408 18.0598 45.7496 17.7044 46.048C17.3476 46.3433 16.9301 46.5228 16.452 46.5866C15.9724 46.6472 15.4585 46.5832 14.9103 46.3945C14.3689 46.2081 13.9275 45.9433 13.5859 45.6C13.2452 45.2543 13.0234 44.8599 12.9205 44.4166C12.8185 43.971 12.8542 43.5035 13.0276 43.0142C13.133 42.717 13.2844 42.4459 13.4819 42.2008C13.6794 41.9558 13.9229 41.7588 14.2125 41.6096C14.5022 41.4605 14.8383 41.3799 15.2208 41.3679C15.6011 41.3552 16.0309 41.4313 16.5103 41.5963L16.875 41.7219L15.3909 45.9096L14.6202 45.6443L15.7482 42.4615C15.4775 42.3683 15.2184 42.3407 14.9708 42.3786C14.7208 42.4157 14.4998 42.5128 14.3078 42.6699C14.1165 42.8247 13.9739 43.0347 13.8799 43.2999C13.7778 43.588 13.7598 43.864 13.8258 44.1279C13.8904 44.3887 14.0155 44.6165 14.2013 44.8113C14.3855 45.003 14.6096 45.1442 14.8734 45.235L15.4755 45.4423C15.8287 45.5639 16.1511 45.6056 16.4425 45.5674C16.7348 45.5269 16.9861 45.4171 17.1962 45.2381C17.4041 45.0582 17.5611 44.8185 17.6672 44.519C17.7361 44.3246 17.7714 44.1379 17.7731 43.9589C17.7725 43.7791 17.7366 43.6116 17.6655 43.4563C17.5945 43.301 17.4873 43.164 17.344 43.0455L17.8635 42.1352C18.1227 42.3117 18.3244 42.5376 18.4687 42.813C18.6115 43.0854 18.6891 43.393 18.7014 43.7359C18.7122 44.0757 18.6496 44.4377 18.5134 44.8218Z" fill="#F5F2EE"/>
<path d="M21.1301 39.6967C20.8519 40.1606 20.507 40.4976 20.0954 40.7075C19.683 40.9142 19.2364 40.9962 18.7557 40.9535C18.2749 40.9109 17.7936 40.7466 17.3116 40.4607C16.8234 40.1711 16.4475 39.824 16.1838 39.4193C15.9181 39.0135 15.7796 38.5816 15.7685 38.1237C15.7574 37.6658 15.8872 37.2112 16.1579 36.7597C16.3763 36.3956 16.6387 36.1113 16.9452 35.9067C17.2497 35.7009 17.5753 35.5824 17.9221 35.5512C18.2702 35.5179 18.6159 35.5806 18.9592 35.7392L18.4146 36.6473C18.1594 36.5635 17.8967 36.5629 17.6267 36.6452C17.3579 36.7255 17.1343 36.9144 16.9559 37.2119C16.8 37.472 16.7322 37.7407 16.7526 38.0179C16.7722 38.2918 16.8758 38.5578 17.0634 38.8157C17.2489 39.0724 17.5127 39.3023 17.8549 39.5053C18.2054 39.7132 18.5397 39.8396 18.8579 39.8845C19.176 39.9294 19.463 39.8966 19.7188 39.786C19.9759 39.6734 20.1836 39.485 20.3421 39.2207C20.4481 39.0439 20.5118 38.8645 20.5332 38.6826C20.5538 38.4974 20.5319 38.3193 20.4674 38.1485C20.4042 37.9756 20.2979 37.8181 20.1484 37.6758L20.693 36.7677C20.9839 36.9854 21.2008 37.2509 21.3439 37.5642C21.4869 37.8776 21.5435 38.2172 21.5136 38.583C21.485 38.9468 21.3572 39.318 21.1301 39.6967Z" fill="#F5F2EE"/>
<path d="M23.0629 36.7974L18.9345 33.0298L22.0067 29.6609L26.1352 33.4285L25.4168 34.2163L21.9818 31.0815L20.3414 32.8802L23.7764 36.015L23.0629 36.7974Z" fill="#F5F2EE"/>
<path d="M26.8426 32.925L26.2868 32.1639L26.4483 32.0456C26.5736 31.9539 26.659 31.8507 26.7048 31.736C26.751 31.6179 26.7546 31.4739 26.7155 31.3041C26.6764 31.1343 26.589 30.9247 26.4533 30.6753C26.3162 30.4239 26.1285 30.1193 25.8904 29.7616L24.5183 27.6995L27.6652 25.3945L30.9436 29.9212L30.0834 30.5512L27.3557 26.7848L25.8821 27.8642L26.9258 29.4542C27.1785 29.8404 27.3765 30.1945 27.5199 30.5165C27.6652 30.8371 27.7506 31.1308 27.7762 31.3977C27.8004 31.6627 27.7598 31.9044 27.6544 32.1229C27.5477 32.3394 27.371 32.538 27.1244 32.7186L26.8426 32.925Z" fill="#F5F2EE"/>
<path d="M33.5893 28.857C33.2677 29.0054 32.9501 29.0799 32.6364 29.0805C32.3218 29.0788 32.0367 28.998 31.7812 28.8381C31.5278 28.6772 31.326 28.4297 31.1756 28.0957C31.0462 27.8081 30.9947 27.546 31.0212 27.3094C31.0477 27.0727 31.1301 26.857 31.2685 26.6621C31.407 26.4673 31.5793 26.2889 31.7857 26.1268C31.9921 25.9647 32.2088 25.8139 32.4359 25.6743C32.724 25.4986 32.9577 25.356 33.1371 25.2464C33.3156 25.1346 33.4358 25.0324 33.4978 24.9396C33.5598 24.8469 33.5639 24.7408 33.5102 24.6213L33.4997 24.5981C33.3693 24.3083 33.1867 24.1214 32.952 24.0374C32.7196 23.9523 32.4436 23.9835 32.1243 24.131C31.7917 24.2845 31.563 24.4796 31.4381 24.7163C31.3144 24.9497 31.2565 25.1728 31.2645 25.3856L30.2406 25.6018C30.2113 25.2413 30.2596 24.9171 30.3854 24.6292C30.5124 24.3381 30.6952 24.0854 30.9339 23.871C31.1716 23.6544 31.4435 23.4754 31.7496 23.3341C31.9522 23.2406 32.1779 23.1657 32.4267 23.1097C32.6767 23.0504 32.9291 23.038 33.1841 23.0726C33.4413 23.1062 33.6865 23.2107 33.9198 23.3862C34.1521 23.5595 34.3519 23.8319 34.5192 24.2036L36.0427 27.588L35.078 28.0334L34.7644 27.3366L34.7247 27.3549C34.7186 27.5127 34.6795 27.683 34.6076 27.8659C34.5356 28.0487 34.4178 28.2273 34.2542 28.4017C34.0906 28.5761 33.869 28.7278 33.5893 28.857ZM33.4455 27.9615C33.7187 27.8354 33.9277 27.6734 34.0727 27.4756C34.22 27.2767 34.3049 27.0665 34.3276 26.8449C34.3514 26.6202 34.318 26.4072 34.2274 26.2059L33.9317 25.5489C33.9124 25.6005 33.859 25.6652 33.7717 25.743C33.6855 25.8175 33.5835 25.8953 33.4657 25.9764C33.347 26.0553 33.231 26.1315 33.1178 26.2051C33.0036 26.2766 32.9083 26.3366 32.8318 26.3853C32.6511 26.4981 32.4945 26.6198 32.3618 26.7506C32.2313 26.8803 32.1431 27.0212 32.0972 27.1733C32.0525 27.3222 32.0699 27.4851 32.1496 27.6621C32.2601 27.9076 32.4341 28.0517 32.6714 28.0944C32.9078 28.1349 33.1658 28.0906 33.4455 27.9615Z" fill="#F5F2EE"/>
<path d="M36.1438 22.7593L35.9332 21.8444L40.5157 20.7308L40.7263 21.6457L38.9549 22.0762L39.9981 26.608L38.9656 26.8589L37.9224 22.3271L36.1438 22.7593Z" fill="#F5F2EE"/>
<path d="M46.5133 22.7271L46.542 23.6691L43.5173 23.8002L43.4886 22.8582L46.5133 22.7271ZM43.7232 20.5209L43.8934 26.1074L42.8282 26.1536L42.658 20.567L43.7232 20.5209ZM47.2022 20.37L47.3725 25.9566L46.3109 26.0026L46.1407 20.416L47.2022 20.37Z" fill="#F5F2EE"/>
<path d="M50.2361 26.5372C49.8864 26.4811 49.5813 26.3659 49.3209 26.1915C49.0609 26.0146 48.8697 25.7887 48.7473 25.5135C48.6273 25.2388 48.5983 24.9209 48.6605 24.5599C48.7141 24.2492 48.818 24.003 48.9724 23.8214C49.1268 23.6398 49.3158 23.5067 49.5396 23.4222C49.7634 23.3377 50.0062 23.2858 50.268 23.2663C50.5298 23.2469 50.7939 23.2426 51.0604 23.2534C51.3975 23.2682 51.6711 23.2801 51.8812 23.2892C52.0917 23.296 52.2487 23.2781 52.352 23.2357C52.4553 23.1934 52.518 23.1076 52.5403 22.9785L52.5446 22.9534C52.5986 22.6402 52.5517 22.3834 52.4042 22.1828C52.259 21.9827 52.0127 21.8547 51.6654 21.799C51.3037 21.741 51.0049 21.7754 50.7689 21.9021C50.5357 22.0269 50.3629 22.1797 50.2505 22.3607L49.2805 21.9693C49.4579 21.6538 49.6793 21.4117 49.9447 21.243C50.2128 21.0723 50.5059 20.9645 50.8237 20.9197C51.142 20.8724 51.4676 20.8755 51.8006 20.9289C52.0209 20.9643 52.2499 21.028 52.4876 21.1202C52.728 21.2103 52.9443 21.3408 53.1364 21.5117C53.3309 21.6829 53.4758 21.9063 53.571 22.182C53.6667 22.4553 53.6799 22.7928 53.6107 23.1944L52.9805 26.8521L51.9314 26.6838L52.0611 25.9308L52.018 25.9239C51.9246 26.0514 51.797 26.1709 51.635 26.2825C51.473 26.3941 51.2754 26.4767 51.0422 26.5302C50.809 26.5837 50.5403 26.586 50.2361 26.5372ZM50.6179 25.7141C50.9149 25.7617 51.1789 25.7438 51.4099 25.6605C51.6432 25.5775 51.8313 25.4505 51.974 25.2793C52.1195 25.1061 52.211 24.9107 52.2485 24.6932L52.3709 23.9832C52.3259 24.0153 52.2455 24.0392 52.1296 24.055C52.0164 24.0688 51.8883 24.0765 51.7453 24.0781C51.6027 24.0774 51.4638 24.076 51.3288 24.074C51.1942 24.0696 51.0815 24.0663 50.9908 24.064C50.7779 24.0569 50.5799 24.0706 50.3967 24.1051C50.2159 24.1399 50.064 24.2077 49.9408 24.3083C49.8204 24.4069 49.7437 24.5519 49.7108 24.7431C49.6651 25.0085 49.7287 25.225 49.9016 25.3928C50.0749 25.5582 50.3137 25.6653 50.6179 25.7141Z" fill="#F5F2EE"/>
<path d="M57.4582 28.5166L59.1473 24.1721L57.8952 23.6975C57.598 23.5849 57.3398 23.5661 57.1206 23.6413C56.9014 23.7164 56.7483 23.8659 56.6613 24.0898C56.5751 24.3114 56.5817 24.5188 56.6809 24.712C56.7833 24.9039 56.9729 25.0523 57.2496 25.1572L58.8658 25.7698L58.5467 26.5906L56.9305 25.9779C56.5449 25.8318 56.2361 25.6421 56.004 25.4088C55.7751 25.1742 55.6304 24.9105 55.5698 24.6177C55.5115 24.3258 55.5448 24.0194 55.6696 23.6983C55.7971 23.3705 55.9841 23.1171 56.2306 22.9381C56.4803 22.7578 56.7758 22.6571 57.1172 22.636C57.4608 22.6158 57.8322 22.6814 58.2314 22.8327L60.4397 23.6697L58.4144 28.8791L57.4582 28.5166ZM54.0285 27.2166L56.525 25.1432L57.5662 25.5379L55.0697 27.6112L54.0285 27.2166Z" fill="#F5F2EE"/>
<path d="M63.0056 31.8579L66.6107 27.5868L67.4425 28.288L65.931 30.0788L66.3317 30.4165L69.2538 29.8148L70.2832 30.6825L66.8745 31.3642L66.6976 34.97L65.6654 34.0999L65.8183 31.3068L65.2786 30.8518L63.8375 32.5591L63.0056 31.8579Z" fill="#F5F2EE"/>
<path d="M68.3489 37.4524C68.0225 37.0425 67.8312 36.6095 67.7752 36.1536C67.7191 35.6977 67.7921 35.25 67.9943 34.8107C68.1964 34.3714 68.5225 33.9709 68.9726 33.6093C69.4246 33.2462 69.8871 33.0131 70.3601 32.9101C70.8331 32.807 71.2849 32.8331 71.7154 32.9882C72.1459 33.1433 72.5244 33.4258 72.8508 33.8357C73.1772 34.2456 73.3685 34.6785 73.4245 35.1345C73.4806 35.5904 73.4066 36.0388 73.2026 36.4796C72.9986 36.9205 72.6705 37.3225 72.2186 37.6856C71.7685 38.0472 71.3078 38.2787 70.8367 38.3803C70.3656 38.4818 69.9148 38.455 69.4843 38.2999C69.0537 38.1448 68.6753 37.8623 68.3489 37.4524ZM69.0632 36.8832C69.2747 37.1489 69.52 37.3128 69.799 37.375C70.0779 37.4371 70.367 37.4165 70.6661 37.3131C70.9667 37.2117 71.257 37.0485 71.5368 36.8236C71.8148 36.6003 72.0362 36.3525 72.2008 36.0802C72.3688 35.8083 72.4542 35.5281 72.457 35.2396C72.4598 34.9511 72.3554 34.674 72.1439 34.4083C71.9308 34.1407 71.6831 33.9756 71.4007 33.9131C71.1199 33.8525 70.8282 33.8736 70.5257 33.9766C70.2266 34.08 69.938 34.2434 69.66 34.4667C69.3801 34.6916 69.1571 34.9392 68.991 35.2095C68.8264 35.4818 68.7436 35.7615 68.7427 36.0485C68.7433 36.3374 68.8501 36.6156 69.0632 36.8832Z" fill="#F5F2EE"/>
<path d="M74.954 42.1325L74.1168 42.5654L72.7497 39.8642L73.5868 39.4313L74.954 42.1325ZM75.7902 38.636L70.8256 41.2033L70.3441 40.2521L75.3088 37.6847L75.7902 38.636ZM77.3628 41.7431L72.3981 44.3104L71.9183 43.3624L76.8829 40.795L77.3628 41.7431Z" fill="#F5F2EE"/>
<path d="M73.199 47.8589C73.0571 47.3369 73.0529 46.8539 73.1861 46.41C73.3224 45.9678 73.572 45.5866 73.9349 45.2665C74.2979 44.9464 74.7489 44.7098 75.2879 44.5565C75.8339 44.4012 76.3438 44.3672 76.8174 44.4545C77.2934 44.5411 77.7001 44.7381 78.0375 45.0457C78.3749 45.3532 78.6127 45.761 78.7507 46.269C78.862 46.6787 78.8854 47.0654 78.8208 47.4293C78.7586 47.7925 78.6189 48.1109 78.4017 48.3845C78.185 48.6604 77.901 48.8685 77.5495 49.0088L77.2719 47.987C77.5086 47.8591 77.6906 47.6687 77.8179 47.4156C77.9459 47.1649 77.9644 46.8721 77.8734 46.5374C77.7939 46.2447 77.6473 46.0103 77.4335 45.834C77.2227 45.6594 76.9596 45.5514 76.6442 45.51C76.3311 45.4678 75.9832 45.5012 75.6005 45.61C75.2085 45.7215 74.8864 45.8774 74.6342 46.0777C74.3819 46.278 74.2072 46.5093 74.11 46.7714C74.0135 47.0359 74.0056 47.3169 74.0864 47.6142C74.1404 47.8131 74.2256 47.9831 74.3418 48.1241C74.461 48.2667 74.6044 48.3735 74.7719 48.4444C74.9401 48.5176 75.1271 48.5489 75.3329 48.5383L75.6105 49.5602C75.2526 49.6216 74.9114 49.5963 74.5869 49.4843C74.2624 49.3723 73.9787 49.1793 73.7359 48.9054C73.4937 48.6338 73.3147 48.285 73.199 47.8589Z" fill="#F5F2EE"/>
<path d="M71.868 52.0798C71.8578 51.9176 71.8618 51.7689 71.88 51.6338C71.8958 51.4988 71.9161 51.3975 71.941 51.3299L72.8465 51.5238C72.8058 51.7264 72.7939 51.9049 72.811 52.0593C72.828 52.2137 72.8947 52.346 73.011 52.4564C73.1275 52.5692 73.312 52.6622 73.5645 52.7354L73.9431 52.8417L79.46 50.3716L79.5333 51.5337L75.2975 53.2751L75.3011 53.3332L79.7152 54.4171L79.7887 55.5829L73.3268 53.7643C73.0298 53.6798 72.7758 53.5629 72.5646 53.4135C72.3511 53.2643 72.1863 53.0798 72.0704 52.8599C71.9544 52.6401 71.887 52.3801 71.868 52.0798Z" fill="#F5F2EE"/>
<path d="M74.0376 56.6149L74.973 56.73L74.9455 56.9282C74.9241 57.082 74.9387 57.2147 74.9893 57.3263C75.0419 57.4405 75.143 57.5414 75.2925 57.6288C75.4419 57.7163 75.6537 57.7958 75.9279 57.8673C76.2044 57.9391 76.5545 58.0104 76.9781 58.0813L79.4192 58.4904L78.8816 62.3539L73.337 61.6498L73.4839 60.5938L78.0972 61.1797L78.349 59.3704L76.4767 59.0446C76.0225 58.9649 75.6295 58.8673 75.2978 58.7519C74.9658 58.6388 74.6948 58.5004 74.4849 58.3369C74.2775 58.1736 74.1319 57.979 74.0482 57.7532C73.9669 57.5277 73.9473 57.2636 73.9895 56.9609L74.0376 56.6149Z" fill="#F5F2EE"/>
<path d="M76.0758 64.7328L75.5463 66.2669C75.3232 66.9135 74.9904 67.3572 74.5481 67.598C74.1057 67.8387 73.6304 67.8739 73.122 67.7037C72.7907 67.5928 72.5198 67.415 72.309 67.1705C72.0983 66.926 71.9677 66.6278 71.9173 66.2758C71.8692 65.9245 71.9195 65.5333 72.0683 65.1022L72.8648 62.7942L78.1648 64.5689L77.8169 65.5767L73.4072 64.1001L72.9585 65.4003C72.8564 65.6961 72.8496 65.965 72.938 66.207C73.0287 66.4497 73.1949 66.6115 73.4364 66.6923C73.6917 66.7778 73.9328 66.7524 74.1595 66.616C74.3885 66.4803 74.554 66.2646 74.6561 65.9688L75.1856 64.4347L76.0758 64.7328Z" fill="#F5F2EE"/>
<path d="M75.0232 69.8839L75.8406 70.3457L73.4995 74.4394L72.6821 73.9776L73.5871 72.3951L69.5382 70.1077L70.0657 69.1853L74.1146 71.4727L75.0232 69.8839Z" fill="#F5F2EE"/>
<path d="M66.7347 73.621C66.9662 73.353 67.2251 73.1535 67.5114 73.0225C67.7995 72.893 68.0938 72.8474 68.3942 72.8856C68.693 72.9256 68.981 73.0653 69.2583 73.3047C69.497 73.5108 69.6539 73.7263 69.7288 73.9512C69.8038 74.1762 69.8189 74.4055 69.7741 74.6392C69.7292 74.8729 69.6465 75.106 69.5259 75.3383C69.4053 75.5707 69.2705 75.7973 69.1215 76.018C68.9321 76.2967 68.7783 76.5229 68.6603 76.6966C68.5441 76.8719 68.4772 77.0144 68.4594 77.124C68.4416 77.2337 68.4823 77.3313 68.5815 77.4169L68.6008 77.4335C68.8413 77.6412 69.0864 77.7342 69.3359 77.7124C69.5839 77.6926 69.8229 77.5495 70.0528 77.2834C70.2923 77.0062 70.4195 76.7346 70.4344 76.4687C70.4496 76.2062 70.409 75.9804 70.3126 75.7915L71.1573 75.1699C71.3351 75.4836 71.4268 75.7967 71.4325 76.1093C71.4384 76.4253 71.3773 76.7298 71.2491 77.0229C71.1227 77.3176 70.9493 77.5926 70.7289 77.8478C70.583 78.0166 70.4082 78.1782 70.2045 78.3324C70.001 78.49 69.7755 78.6063 69.5281 78.6811C69.2792 78.7578 69.0114 78.7654 68.7247 78.7039C68.4399 78.6439 68.1433 78.4807 67.8348 78.2144L65.0253 75.7891L65.7198 74.9851L66.2983 75.4844L66.3268 75.4513C66.2663 75.3062 66.2306 75.136 66.2198 74.9407C66.2089 74.7455 66.2417 74.535 66.318 74.3093C66.3944 74.0836 66.5333 73.8542 66.7347 73.621ZM67.2411 74.3707C67.0445 74.5983 66.9214 74.8317 66.8718 75.071C66.8207 75.312 66.8311 75.5374 66.9033 75.747C66.9756 75.9601 67.0954 76.1388 67.2625 76.2831L67.8078 76.7539C67.8038 76.6991 67.8255 76.6184 67.8727 76.5118C67.9202 76.4086 67.9807 76.2958 68.0544 76.1735C68.1298 76.0528 68.2038 75.9356 68.2763 75.8219C68.3507 75.7099 68.4126 75.6159 68.4621 75.54C68.5799 75.3629 68.672 75.1876 68.7384 75.0142C68.8033 74.8427 68.8248 74.6786 68.803 74.522C68.7815 74.3688 68.6972 74.2288 68.5503 74.102C68.3465 73.926 68.1272 73.8682 67.8925 73.9283C67.6597 73.9901 67.4425 74.1375 67.2411 74.3707Z" fill="#F5F2EE"/>
<path d="M63.6467 83.9325L60.8113 80.187L60.1609 80.6844L58.5357 78.5375L59.3883 77.8854L60.4755 79.3215L63.8949 76.7065L67.2684 81.1628L66.4215 81.8104L63.6147 78.1027L61.6838 79.5793L64.4907 83.287L63.6467 83.9325Z" fill="#F5F2EE"/>
<path d="M58.4583 82.1001L57.9598 86.8463L56.9033 87.3528L54.5341 82.2906L55.4955 81.8297L57.2199 85.5143L57.707 80.7695L58.7734 80.2583L61.1426 85.3205L60.1812 85.7814L58.4583 82.1001Z" fill="#F5F2EE"/>
<path d="M50.1712 83.3643L51.2549 87.8979L52.5534 87.5709C52.8616 87.4933 53.0843 87.361 53.2217 87.1738C53.359 86.9866 53.3997 86.7763 53.3439 86.5427C53.2886 86.3115 53.1653 86.1449 52.9738 86.043C52.7806 85.9441 52.5405 85.9308 52.2535 86.0031L50.5774 86.4251L50.3726 85.5686L52.0488 85.1466C52.4487 85.0459 52.8103 85.0249 53.1335 85.0836C53.455 85.1452 53.7239 85.2788 53.9402 85.4845C54.1541 85.6908 54.3011 85.9615 54.3812 86.2965C54.4629 86.6386 54.4535 86.9537 54.3527 87.2417C54.2502 87.5327 54.0647 87.7845 53.7963 87.9971C53.5255 88.2104 53.1832 88.3692 52.7691 88.4734L50.479 89.0501L49.1797 83.614L50.1712 83.3643ZM53.7281 82.4687L52.8566 85.5998L51.7769 85.8717L52.6483 82.7406L53.7281 82.4687Z" fill="#F5F2EE"/>
<defs>
<clipPath id="clip0_298_955">
<rect x="21.7949" y="29" width="48" height="48" rx="24" fill="white"/>
</clipPath>
<clipPath id="clip1_298_955">
<rect width="15" height="14" fill="white" transform="translate(38.7949 46)"/>
</clipPath>
</defs>
</svg>
