<svg width="81" height="80" viewBox="0 0 81 80" fill="none" xmlns="http://www.w3.org/2000/svg">
<circle cx="40.2051" cy="40" r="40" fill="#274F46"/>
<g clip-path="url(#clip0_331_1178)">
<rect x="16.2051" y="16" width="48" height="48" rx="24" fill="#71E07B"/>
<path d="M52.205 39.3334C52.2096 41.0932 51.7985 42.8292 51.005 44.4C50.0643 46.2823 48.618 47.8656 46.8283 48.9724C45.0386 50.0792 42.976 50.6659 40.8717 50.6667C39.1119 50.6713 37.3759 50.2601 35.8051 49.4667L28.2051 52L30.7384 44.4C29.945 42.8292 29.5338 41.0932 29.5384 39.3334C29.5392 37.229 30.1259 35.1665 31.2327 33.3768C32.3395 31.587 33.9227 30.1408 35.8051 29.2C37.3759 28.4066 39.1119 27.9954 40.8717 28H41.5384C44.3175 28.1534 46.9424 29.3264 48.9106 31.2945C50.8787 33.2626 52.0517 35.8876 52.205 38.6667V39.3334Z" stroke="white" stroke-width="1.5" stroke-linecap="round" stroke-linejoin="round"/>
<g clip-path="url(#clip1_331_1178)">
<path d="M46.9555 42.87V44.62C46.9562 44.7825 46.9205 44.9433 46.8508 45.0921C46.781 45.241 46.6788 45.3746 46.5505 45.4844C46.4222 45.5943 46.2708 45.6779 46.1059 45.7299C45.941 45.782 45.7663 45.8013 45.593 45.7867C43.6697 45.5916 41.8223 44.9783 40.1992 43.9958C38.6891 43.1002 37.4088 41.9053 36.4492 40.4958C35.3929 38.9741 34.7356 37.2414 34.5305 35.4383C34.5148 35.277 34.5354 35.1145 34.5908 34.961C34.6462 34.8075 34.7352 34.6664 34.8522 34.5468C34.9692 34.4272 35.1116 34.3316 35.2703 34.2662C35.4291 34.2007 35.6007 34.1668 35.7742 34.1667H37.6492C37.9525 34.1639 38.2466 34.2641 38.4766 34.4487C38.7065 34.6333 38.8568 34.8897 38.8992 35.17C38.9784 35.7301 39.1251 36.2799 39.3367 36.8092C39.4208 37.018 39.439 37.2449 39.3892 37.463C39.3393 37.6812 39.2235 37.8814 39.0555 38.04L38.2617 38.7808C39.1514 40.2413 40.447 41.4504 42.0117 42.2808L42.8055 41.54C42.9754 41.3832 43.1899 41.2751 43.4237 41.2286C43.6574 41.182 43.9005 41.199 44.1242 41.2775C44.6913 41.475 45.2804 41.612 45.8805 41.6858C46.1841 41.7258 46.4613 41.8686 46.6595 42.0869C46.8578 42.3052 46.9631 42.5839 46.9555 42.87Z" stroke="white" stroke-width="1.2" stroke-linecap="round" stroke-linejoin="round"/>
</g>
</g>
<path d="M10.231 21.2831L16.6009 24.7927L16.073 25.7507L10.5243 22.6935L8.87231 25.6918L14.4211 28.749L13.8933 29.707L7.52338 26.1974L10.231 21.2831ZM18.6346 22.4579C18.3001 22.8446 17.9195 23.1055 17.4929 23.2404C17.0662 23.3754 16.6247 23.3847 16.1681 23.2684C15.7116 23.152 15.2702 22.9096 14.8441 22.541C14.4161 22.1708 14.1108 21.7674 13.9281 21.3309C13.7455 20.8943 13.6902 20.4552 13.7623 20.0136C13.8344 19.572 14.0377 19.1578 14.3722 18.771C14.7067 18.3843 15.0873 18.1234 15.5139 17.9885C15.9405 17.8535 16.383 17.845 16.8414 17.9628C17.2997 18.0807 17.7429 18.3247 18.1708 18.6949C18.5969 19.0635 18.9005 19.4653 19.0813 19.9003C19.2622 20.3354 19.3166 20.7737 19.2445 21.2153C19.1724 21.6569 18.9691 22.0711 18.6346 22.4579ZM17.9628 21.8721C18.1796 21.6214 18.293 21.3564 18.303 21.077C18.313 20.7977 18.2419 20.5234 18.0898 20.2541C17.9393 19.983 17.7315 19.7329 17.4665 19.5037C17.2033 19.276 16.9267 19.1072 16.6368 18.9973C16.3466 18.884 16.0632 18.8517 15.7864 18.9003C15.5096 18.9488 15.2628 19.0985 15.046 19.3491C14.8276 19.6016 14.7135 19.8692 14.7038 20.1518C14.6956 20.4327 14.7677 20.7095 14.92 20.9821C15.0721 21.2514 15.2797 21.4999 15.543 21.7275C15.808 21.9567 16.0846 22.1272 16.373 22.2389C16.663 22.3488 16.9454 22.3787 17.2204 22.3286C17.4969 22.2767 17.7444 22.1245 17.9628 21.8721ZM19.4568 19.1878L20.298 18.4999C20.4498 18.6632 20.6364 18.7323 20.8576 18.7074C21.0806 18.681 21.3085 18.5726 21.5413 18.3822C21.7777 18.1889 21.938 17.9736 22.0224 17.7364C22.1052 17.4974 22.0589 17.2707 21.8836 17.0563C21.7787 16.928 21.6552 16.8425 21.5131 16.7996C21.3714 16.7535 21.221 16.751 21.0621 16.7923C20.905 16.8321 20.7486 16.9157 20.5928 17.043L19.9056 17.6051L19.3773 16.9591L20.0645 16.3971C20.2972 16.2067 20.4279 16.0112 20.4564 15.8105C20.4849 15.6098 20.434 15.4297 20.3036 15.2703C20.1627 15.098 19.9872 15.0106 19.7772 15.008C19.5675 15.0022 19.3527 15.0892 19.1328 15.269C18.9092 15.4519 18.7644 15.6544 18.6984 15.8766C18.6309 16.0969 18.6579 16.2889 18.7795 16.4525L17.9493 17.1315C17.7615 16.8906 17.6636 16.625 17.6556 16.3349C17.648 16.0414 17.7211 15.7492 17.8747 15.4584C18.0287 15.1643 18.2559 14.8943 18.5565 14.6485C18.8698 14.3922 19.1823 14.2208 19.4938 14.1342C19.8053 14.0477 20.096 14.0423 20.366 14.1182C20.6379 14.1925 20.8682 14.3451 21.0571 14.5761C21.2474 14.8088 21.3336 15.0563 21.3158 15.3187C21.2982 15.5777 21.2048 15.8299 21.0355 16.0754L21.0715 16.1194C21.2436 15.997 21.4288 15.9281 21.6272 15.9126C21.8256 15.8972 22.0197 15.9326 22.2096 16.019C22.3995 16.1053 22.5694 16.2401 22.7192 16.4233C22.9306 16.6817 23.0419 16.9637 23.0534 17.2694C23.0666 17.5736 22.9897 17.8796 22.8226 18.1876C22.6558 18.4922 22.412 18.7757 22.0913 19.038C21.7798 19.2927 21.4606 19.4727 21.1338 19.578C20.8073 19.6798 20.4982 19.7002 20.2065 19.639C19.9167 19.5763 19.6668 19.4259 19.4568 19.1878ZM24.0678 17.3681L21.4036 12.6085L23.3775 11.5036C23.9146 11.2029 24.4043 11.0794 24.8467 11.1329C25.2879 11.1844 25.6178 11.4054 25.8363 11.7958C25.9924 12.0747 26.0273 12.3454 25.941 12.6081C25.8547 12.8707 25.6805 13.112 25.4184 13.332C25.645 13.2377 25.8761 13.1925 26.1116 13.1963C26.3459 13.1981 26.5647 13.2547 26.7681 13.366C26.9736 13.4762 27.1428 13.65 27.2758 13.8876C27.4169 14.1396 27.4767 14.3992 27.4552 14.6662C27.4326 14.9312 27.328 15.1878 27.1414 15.436C26.9557 15.6811 26.6893 15.9007 26.3423 16.095L24.0678 17.3681ZM24.5049 16.106L25.9086 15.3203C26.1379 15.1919 26.287 15.0366 26.3559 14.8543C26.4248 14.6719 26.4066 14.4868 26.3013 14.2988C26.1776 14.0777 26.0154 13.9406 25.8147 13.8874C25.6129 13.8322 25.3973 13.8688 25.168 13.9971L23.7643 14.7829L24.5049 16.106ZM23.3844 14.1042L24.4969 13.4816C24.6704 13.3844 24.8053 13.2764 24.9015 13.1574C24.9997 13.0373 25.0565 12.9133 25.0717 12.7854C25.0878 12.6543 25.0606 12.5257 24.9901 12.3997C24.8872 12.2158 24.7314 12.1145 24.5228 12.0956C24.3142 12.0767 24.0787 12.1407 23.8163 12.2876L22.7132 12.905L23.3844 14.1042ZM30.6643 14.3534C30.1804 14.5187 29.7202 14.5521 29.2838 14.4535C28.8473 14.3548 28.4613 14.1402 28.1257 13.8095C27.7901 13.4788 27.5312 13.0469 27.3491 12.5137C27.1663 11.9782 27.106 11.476 27.1685 11.0068C27.2309 10.5377 27.4046 10.1306 27.6895 9.78566C27.9745 9.44067 28.3589 9.18554 28.8428 9.02026C29.3267 8.85499 29.7869 8.82165 30.2234 8.92025C30.6598 9.01886 31.0462 9.23462 31.3826 9.56755C31.7189 9.90047 31.9786 10.3347 32.1614 10.8701C32.3435 11.4033 32.403 11.9034 32.3398 12.3702C32.2766 12.8371 32.1025 13.2431 31.8176 13.588C31.5327 13.933 31.1482 14.1882 30.6643 14.3534ZM30.3796 13.5088C30.6932 13.4017 30.9248 13.23 31.0743 12.9938C31.2238 12.7577 31.3008 12.4849 31.3052 12.1757C31.3119 11.8657 31.2586 11.5449 31.1454 11.2134C31.0329 10.884 30.8792 10.5988 30.6843 10.3577C30.4908 10.1135 30.2623 9.94264 29.9988 9.84501C29.7353 9.74738 29.4468 9.75213 29.1331 9.85925C28.8172 9.96714 28.5838 10.1407 28.4328 10.3799C28.2841 10.6183 28.2068 10.8936 28.2008 11.2059C28.1964 11.5151 28.2504 11.8344 28.3629 12.1637C28.4761 12.4953 28.6291 12.782 28.8218 13.0239C29.0167 13.265 29.2455 13.4333 29.5083 13.5287C29.7733 13.6233 30.0637 13.6167 30.3796 13.5088ZM36.7246 9.67984L36.8507 10.5909L33.9241 10.9961L33.798 10.085L36.7246 9.67984ZM33.7823 7.79636L34.5303 13.1994L33.4996 13.3421L32.7516 7.93904L33.7823 7.79636ZM37.1486 7.33033L37.8966 12.7333L36.8695 12.8755L36.1215 7.47252L37.1486 7.33033ZM39.7474 11.2588L42.3228 7.40124L43.4652 7.45129L43.2265 12.9006L42.187 12.8551L42.3607 8.8887L39.7958 12.7503L38.6428 12.6998L38.8815 7.25048L39.921 7.29602L39.7474 11.2588ZM44.3183 8.49266L44.5202 7.59901L49.0093 8.61362L48.8073 9.50727L47.072 9.11505L46.0714 13.5417L45.06 13.3131L46.0605 8.88645L44.3183 8.49266ZM50.3742 11.1118L51.8353 11.7229C52.4513 11.9805 52.8613 12.3316 53.0654 12.7762C53.2695 13.2208 53.2706 13.6845 53.0687 14.1672C52.9372 14.4817 52.7446 14.7335 52.4911 14.9225C52.2375 15.1116 51.937 15.2194 51.5897 15.2461C51.2433 15.2706 50.8648 15.197 50.4542 15.0252L48.2559 14.1059L50.3605 9.07369L51.3204 9.47515L49.5693 13.6621L50.8077 14.18C51.0895 14.2978 51.3516 14.3215 51.5941 14.251C51.8374 14.1783 52.0071 14.0273 52.103 13.7979C52.2044 13.5555 52.1964 13.3199 52.0791 13.0912C51.9627 12.8603 51.7636 12.686 51.4818 12.5681L50.0207 11.957L50.3742 11.1118ZM61.9684 18.5328C61.4726 19.1304 60.9371 19.5536 60.3617 19.8022C59.7878 20.049 59.2145 20.1302 58.6417 20.0457C58.0723 19.9609 57.5461 19.7182 57.0633 19.3176C56.5786 18.9156 56.2411 18.4418 56.0507 17.8963C55.8637 17.3505 55.8392 16.7719 55.9773 16.1605C56.1153 15.5491 56.4315 14.9455 56.9258 14.3497C57.4215 13.752 57.9564 13.3298 58.5302 13.083C59.1056 12.8343 59.678 12.7524 60.2474 12.8373C60.8202 12.9218 61.3489 13.165 61.8336 13.5671C62.3165 13.9676 62.6514 14.4408 62.8385 14.9866C63.0288 15.5321 63.055 16.1106 62.9169 16.722C62.7803 17.3315 62.4642 17.9351 61.9684 18.5328ZM61.1321 17.839C61.5099 17.3835 61.7543 16.9387 61.8652 16.5047C61.9794 16.0704 61.9755 15.6672 61.8534 15.2953C61.7347 14.923 61.5149 14.6039 61.1943 14.3378C60.8717 14.0703 60.5166 13.9126 60.1288 13.8646C59.7425 13.8149 59.3456 13.8855 58.938 14.0764C58.5338 14.2671 58.1427 14.5902 57.7648 15.0457C57.387 15.5012 57.1409 15.9462 57.0267 16.3805C56.9158 16.8145 56.9198 17.2176 57.0385 17.5899C57.1588 17.9603 57.3801 18.2793 57.7027 18.5469C58.0233 18.8129 58.3768 18.9708 58.7631 19.0205C59.1527 19.07 59.5497 18.9994 59.9539 18.8087C60.3615 18.6178 60.7542 18.2945 61.1321 17.839ZM68.4526 20.3945L68.1944 21.1545C67.9763 21.1175 67.778 21.0365 67.5994 20.9116C67.4242 20.7871 67.247 20.6235 67.0679 20.421C66.8907 20.2169 66.6904 19.9814 66.4669 19.7143C66.2158 19.4118 65.9498 19.2094 65.6689 19.1073C65.3899 19.0037 65.0868 18.9925 64.7597 19.0736C64.436 19.1551 64.0797 19.322 63.691 19.5742L63.7325 19.6274C64.1086 19.5591 64.4598 19.5974 64.786 19.7422C65.1137 19.8889 65.3992 20.1181 65.6424 20.4298C65.9133 20.7769 66.075 21.1477 66.1276 21.5422C66.1801 21.9366 66.1138 22.3307 65.9286 22.7245C65.7467 23.1186 65.4355 23.4876 64.9951 23.8313C64.549 24.1794 64.0995 24.398 63.6466 24.4872C63.1951 24.5783 62.7649 24.5446 62.356 24.3862C61.9505 24.2282 61.5911 23.9486 61.278 23.5473C60.9649 23.146 60.7823 22.7255 60.7303 22.2856C60.6816 21.8461 60.7724 21.4044 61.0026 20.9605C61.2342 20.5185 61.6132 20.0921 62.1395 19.6814L62.565 19.3493C63.5486 18.5818 64.4256 18.1797 65.1958 18.1432C65.9661 18.1067 66.6301 18.4323 67.1879 19.1201C67.3698 19.3416 67.528 19.5424 67.6626 19.7227C67.7991 19.9014 67.9284 20.0498 68.0505 20.1677C68.1759 20.2861 68.3099 20.3617 68.4526 20.3945ZM61.9829 23.0018C62.1649 23.2351 62.3803 23.3898 62.629 23.466C62.8809 23.5427 63.1518 23.5415 63.4415 23.4626C63.7313 23.3836 64.0245 23.2283 64.3213 22.9968C64.6124 22.7696 64.8241 22.5308 64.9561 22.2806C65.0882 22.0304 65.1412 21.7789 65.115 21.526C65.0907 21.2717 64.9861 21.026 64.8011 20.789C64.6642 20.6136 64.5111 20.4808 64.3417 20.3908C64.1742 20.2993 63.9931 20.2499 63.7983 20.2428C63.605 20.2375 63.4023 20.274 63.1902 20.3524C62.9814 20.4313 62.7664 20.554 62.5451 20.7207C62.1009 21.0673 61.8266 21.445 61.7222 21.8538C61.6193 22.2645 61.7062 22.6471 61.9829 23.0018ZM64.1222 27.9843C63.879 27.5158 63.7757 27.0573 63.8123 26.6088C63.8521 26.1614 64.0132 25.7497 64.2955 25.3737C64.5778 24.9978 64.9617 24.6839 65.4471 24.4319C65.9387 24.1767 66.4206 24.0439 66.8927 24.0336C67.3669 24.0222 67.7974 24.1295 68.1841 24.3555C68.5709 24.5815 68.8826 24.9225 69.1193 25.3785C69.3101 25.7462 69.412 26.1094 69.4248 26.4682C69.4398 26.8259 69.3712 27.1562 69.2191 27.4592C69.068 27.7644 68.8384 28.0183 68.5302 28.2209L68.0541 27.3038C68.2548 27.1355 68.3903 26.9185 68.4604 26.6528C68.5315 26.3891 68.4891 26.107 68.3332 25.8065C68.1968 25.5439 68.0081 25.3498 67.7669 25.2243C67.5288 25.0997 67.2544 25.0488 66.9434 25.0716C66.6345 25.0932 66.3078 25.1934 65.9632 25.3723C65.6102 25.5555 65.3333 25.7673 65.1326 26.0075C64.9319 26.2477 64.8119 26.5021 64.7725 26.7706C64.7343 27.0412 64.7844 27.3099 64.9229 27.5767C65.0156 27.7553 65.1322 27.9002 65.2726 28.0114C65.4162 28.1236 65.5756 28.1969 65.7508 28.2313C65.9271 28.2678 66.1128 28.2607 66.308 28.2101L66.7841 29.1273C66.4535 29.2562 66.1212 29.2994 65.787 29.2568C65.4528 29.2142 65.1411 29.0865 64.852 28.8739C64.564 28.6633 64.3207 28.3668 64.1222 27.9843ZM63.6601 31.6305C63.6128 31.4792 63.5821 31.3374 63.5681 31.2054C63.5518 31.074 63.5477 30.9736 63.5558 30.9042L64.4625 30.8886C64.4707 31.0894 64.5008 31.2611 64.5528 31.4036C64.6048 31.5461 64.6989 31.6568 64.8352 31.7357C64.9722 31.8169 65.1694 31.8644 65.4267 31.8782L65.8116 31.8956L70.49 28.342L70.829 29.4266L67.2011 32.0081L67.218 32.0623L71.6703 32.1178L72.0105 33.2058L65.4389 32.905C65.1366 32.8904 64.8677 32.8355 64.6321 32.7405C64.3943 32.6462 64.1947 32.5077 64.0334 32.3249C63.8721 32.1422 63.7477 31.9107 63.6601 31.6305ZM65.0725 34.3816L67.5478 34.0861L67.6004 34.5268C67.7173 34.6273 67.8521 34.7078 68.0048 34.7682C68.1577 34.831 68.3361 34.8777 68.5401 34.9082C68.7443 34.941 68.9802 34.9605 69.248 34.9667C69.5181 34.9726 69.8253 34.9693 70.1695 34.9568L72.2102 34.8848L72.6497 38.5661L68.1469 39.1037L68.2463 39.9359L65.7709 40.2314L65.648 39.2018L67.2101 39.0153L66.7592 35.2388L65.1971 35.4253L65.0725 34.3816ZM67.7352 35.6552L68.024 38.0741L71.6241 37.6442L71.4203 35.9376L70.2891 35.9582C69.7138 35.9721 69.212 35.9629 68.7837 35.9305C68.3578 35.8979 68.0083 35.8062 67.7352 35.6552ZM68.7165 41.5253L72.5083 44.1967L72.4296 45.3375L66.9879 44.962L67.0596 43.924L71.0203 44.1973L67.2243 41.5362L67.3038 40.3848L72.7454 40.7603L72.6738 41.7983L68.7165 41.5253ZM71.3676 46.1619L72.256 46.3858L71.1315 50.8485L70.2431 50.6247L70.6778 48.8995L66.277 47.7906L66.5303 46.7851L70.9311 47.894L71.3676 46.1619ZM68.5945 52.1487L67.9412 53.5915C67.6659 54.1997 67.303 54.5994 66.8527 54.7905C66.4023 54.9816 65.9388 54.9692 65.4622 54.7534C65.1516 54.6128 64.9055 54.413 64.7239 54.1541C64.5423 53.8952 64.4432 53.5917 64.4266 53.2438C64.4122 52.8968 64.4968 52.5206 64.6803 52.1151L65.6631 49.9444L70.6321 52.1942L70.203 53.142L66.0686 51.2702L65.515 52.493C65.389 52.7712 65.3578 53.0325 65.4212 53.277C65.4868 53.5224 65.6328 53.6963 65.8593 53.7989C66.0987 53.9072 66.3344 53.9061 66.5664 53.7955C66.8006 53.6858 66.9806 53.4918 67.1066 53.2136L67.7598 51.7708L68.5945 52.1487ZM62.3008 56.4288L66.5076 59.9009L63.6752 63.3326L59.4684 59.8605L60.1308 59.058L63.6309 61.9469L65.1432 60.1147L61.643 57.2258L62.3008 56.4288ZM57.6578 58.7898L62.4362 64.5705L61.637 65.2312L61.0736 64.5496L61.0052 64.6062C61.0301 64.733 61.0454 64.8908 61.051 65.0797C61.0567 65.2686 61.0155 65.4715 60.9277 65.6885C60.8413 65.9073 60.6677 66.1245 60.4067 66.3402C60.0673 66.6208 59.6935 66.7854 59.2854 66.8341C58.8772 66.8828 58.4639 66.8083 58.0454 66.6105C57.6252 66.4142 57.2273 66.0889 56.8517 65.6345C56.4761 65.1802 56.2298 64.728 56.1128 64.278C55.9972 63.8298 55.9994 63.4088 56.1192 63.0149C56.2404 62.6229 56.4708 62.2866 56.8102 62.006C57.0656 61.7949 57.31 61.665 57.5433 61.6165C57.7748 61.5696 57.9836 61.5659 58.1699 61.6054C58.3562 61.6449 58.5109 61.6891 58.6341 61.7377L58.6833 61.697L56.8394 59.4663L57.6578 58.7898ZM59.8966 63.1314C59.6523 62.8357 59.3952 62.6121 59.1254 62.4604C58.8557 62.3086 58.5875 62.2369 58.321 62.2453C58.0561 62.2554 57.8059 62.3578 57.5705 62.5524C57.326 62.7545 57.1752 62.9882 57.118 63.2535C57.0624 63.5207 57.0854 63.8011 57.187 64.095C57.2868 64.3903 57.4528 64.6785 57.6851 64.9595C57.9143 65.2368 58.1622 65.4512 58.4286 65.6026C58.6933 65.7555 58.9614 65.8272 59.233 65.8177C59.5028 65.8097 59.7609 65.7038 60.0072 65.5002C60.2445 65.3041 60.3946 65.0771 60.4578 64.8191C60.5191 64.5626 60.5013 64.2902 60.4042 64.0018C60.3072 63.7135 60.138 63.4233 59.8966 63.1314ZM52.6435 64.7849C53.093 64.541 53.5411 64.4311 53.9879 64.4553C54.4347 64.4795 54.8512 64.6266 55.2373 64.8964C55.6235 65.1663 55.951 65.5489 56.2197 66.0441C56.4896 66.5414 56.633 67.0266 56.6499 67.4995C56.6669 67.9725 56.5637 68.4028 56.3405 68.7906C56.1173 69.1784 55.7809 69.4943 55.3315 69.7382C54.882 69.9821 54.4339 70.0919 53.9871 70.0677C53.5403 70.0435 53.1233 69.8954 52.736 69.6235C52.3487 69.3515 52.0201 68.9669 51.7502 68.4696C51.4815 67.9743 51.3392 67.4913 51.3234 67.0204C51.3076 66.5495 51.4113 66.1202 51.6345 65.7324C51.8577 65.3446 52.1941 65.0288 52.6435 64.7849ZM53.0655 65.57C52.7742 65.7281 52.5746 65.936 52.4667 66.1939C52.3589 66.4517 52.3286 66.7335 52.3759 67.0391C52.4212 67.3459 52.5274 67.6532 52.6945 67.9612C52.8605 68.267 53.0597 68.5225 53.2923 68.7277C53.5238 68.936 53.7777 69.0663 54.0538 69.1184C54.3299 69.1706 54.6136 69.1177 54.9049 68.9596C55.1983 68.8004 55.3994 68.5902 55.5083 68.3292C55.615 68.0692 55.6452 67.7848 55.5988 67.476C55.5515 67.1704 55.4448 66.8646 55.2788 66.5587C55.1117 66.2508 54.9129 65.9937 54.6825 65.7874C54.45 65.5823 54.1962 65.4547 53.9212 65.4046C53.6441 65.3556 53.3589 65.4108 53.0655 65.57ZM47.7359 66.8638C48.2483 66.7018 48.7242 66.6717 49.1637 66.7736C49.6016 66.8785 49.9841 67.0989 50.3114 67.4349C50.6371 67.7739 50.8852 68.2131 51.0558 68.7526C51.2243 69.2853 51.2734 69.7862 51.2033 70.2553C51.1309 70.7252 50.9513 71.1308 50.6645 71.4723C50.3754 71.8145 49.9893 72.062 49.5063 72.2147C49.2128 72.3075 48.9131 72.3489 48.607 72.339C48.3009 72.329 48.0056 72.2548 47.7209 72.1163C47.4363 71.9779 47.1783 71.7628 46.947 71.4709C46.7164 71.1814 46.5265 70.8007 46.3773 70.3289L46.2638 69.97L50.3979 68.6627L50.6378 69.4211L47.4957 70.4147C47.5799 70.6811 47.7087 70.8998 47.882 71.071C48.056 71.2444 48.2601 71.3599 48.4943 71.4174C48.7263 71.4756 48.9732 71.4634 49.235 71.3806C49.5195 71.2906 49.7456 71.1421 49.9135 70.9351C50.0799 70.731 50.1853 70.499 50.2298 70.2391C50.2727 69.9822 50.2531 69.724 50.171 69.4644L49.9836 68.8719C49.8737 68.5243 49.7193 68.2479 49.5203 68.0426C49.319 67.8381 49.0875 67.7065 48.8256 67.6478C48.5644 67.5913 48.2859 67.6098 47.9902 67.7034C47.7984 67.764 47.632 67.8464 47.4911 67.9506C47.351 68.057 47.2408 68.1837 47.1607 68.3307C47.0805 68.4777 47.0357 68.6421 47.0261 68.8239L46.0133 68.9542C46.0008 68.6478 46.0604 68.3571 46.1919 68.0821C46.3219 67.8101 46.5173 67.5683 46.7782 67.3567C47.0375 67.148 47.3567 66.9838 47.7359 66.8638ZM45.0377 67.7601L45.7188 73.172L44.6653 73.3046L44.3797 71.0355L43.8723 71.0994L42.3716 73.5932L41.0679 73.7573L42.8331 70.8615L40.3622 68.3485L41.6693 68.184L43.5729 70.1421L44.2564 70.056L43.9842 67.8927L45.0377 67.7601ZM40.2635 72.851L40.2203 73.7662L35.6231 73.549L35.6664 72.6338L37.4435 72.7178L37.6577 68.1845L38.6935 68.2334L38.4793 72.7667L40.2635 72.851Z" fill="#F5F2EE"/>
<defs>
<clipPath id="clip0_331_1178">
<rect x="16.2051" y="16" width="48" height="48" rx="24" fill="white"/>
</clipPath>
<clipPath id="clip1_331_1178">
<rect width="15" height="14" fill="white" transform="translate(33.2051 33)"/>
</clipPath>
</defs>
</svg>
