<svg width="81" height="80" viewBox="0 0 81 80" fill="none" xmlns="http://www.w3.org/2000/svg">
<circle cx="40.2051" cy="40" r="40" fill="#274F46"/>
<g clip-path="url(#clip0_331_1177)">
<rect x="16.2051" y="16" width="48" height="48" rx="24" fill="#71E07B"/>
<path d="M52.205 39.3334C52.2096 41.0932 51.7985 42.8292 51.005 44.4C50.0643 46.2823 48.618 47.8656 46.8283 48.9724C45.0386 50.0792 42.976 50.6659 40.8717 50.6667C39.1119 50.6713 37.3759 50.2601 35.8051 49.4667L28.2051 52L30.7384 44.4C29.945 42.8292 29.5338 41.0932 29.5384 39.3334C29.5392 37.229 30.1259 35.1665 31.2327 33.3768C32.3395 31.587 33.9227 30.1408 35.8051 29.2C37.3759 28.4066 39.1119 27.9954 40.8717 28H41.5384C44.3175 28.1534 46.9424 29.3264 48.9106 31.2945C50.8787 33.2626 52.0517 35.8876 52.205 38.6667V39.3334Z" stroke="white" stroke-width="1.5" stroke-linecap="round" stroke-linejoin="round"/>
<g clip-path="url(#clip1_331_1177)">
<path d="M46.9555 42.87V44.62C46.9562 44.7825 46.9205 44.9433 46.8508 45.0921C46.781 45.241 46.6788 45.3746 46.5505 45.4844C46.4222 45.5943 46.2708 45.6779 46.1059 45.7299C45.941 45.782 45.7663 45.8013 45.593 45.7867C43.6697 45.5916 41.8223 44.9783 40.1992 43.9958C38.6891 43.1002 37.4088 41.9053 36.4492 40.4958C35.3929 38.9741 34.7356 37.2414 34.5305 35.4383C34.5148 35.277 34.5354 35.1145 34.5908 34.961C34.6462 34.8075 34.7352 34.6664 34.8522 34.5468C34.9692 34.4272 35.1116 34.3316 35.2703 34.2662C35.4291 34.2007 35.6007 34.1668 35.7742 34.1667H37.6492C37.9525 34.1639 38.2466 34.2641 38.4766 34.4487C38.7065 34.6333 38.8568 34.8897 38.8992 35.17C38.9784 35.7301 39.1251 36.2799 39.3367 36.8092C39.4208 37.018 39.439 37.2449 39.3892 37.463C39.3393 37.6812 39.2235 37.8814 39.0555 38.04L38.2617 38.7808C39.1514 40.2413 40.447 41.4504 42.0117 42.2808L42.8055 41.54C42.9754 41.3832 43.1899 41.2751 43.4237 41.2286C43.6574 41.182 43.9005 41.199 44.1242 41.2775C44.6913 41.475 45.2804 41.612 45.8805 41.6858C46.1841 41.7258 46.4613 41.8686 46.6595 42.0869C46.8578 42.3052 46.9631 42.5839 46.9555 42.87Z" stroke="white" stroke-width="1.2" stroke-linecap="round" stroke-linejoin="round"/>
</g>
</g>
<path d="M14.5214 28.756L8.18214 25.1914L10.3334 21.3656L11.0144 21.7485L9.29476 24.8067L11.4367 26.0111L13.045 23.151L13.726 23.534L12.1177 26.3941L14.2721 27.6055L16.0196 24.4977L16.7005 24.8807L14.5214 28.756ZM17.1692 24.2012L12.8973 20.8097L13.4007 20.1756L14.0459 20.6879L14.0813 20.6434C13.9317 20.3977 13.8721 20.1206 13.9023 19.8121C13.9326 19.5037 14.0493 19.2215 14.2525 18.9656C14.2907 18.9174 14.3395 18.8579 14.3988 18.7871C14.458 18.7162 14.5042 18.6637 14.5374 18.6296L15.2049 19.1595C15.1817 19.1773 15.1328 19.2217 15.0584 19.2926C14.9836 19.3602 14.9116 19.4375 14.8424 19.5247C14.6776 19.7323 14.5739 19.9523 14.5315 20.1847C14.4888 20.4137 14.5059 20.6359 14.5828 20.8511C14.6594 21.0631 14.7941 21.2456 14.987 21.3987L17.6903 23.5449L17.1692 24.2012ZM19.0765 15.9873L18.6822 16.6631C18.561 16.6056 18.4261 16.5662 18.2775 16.545C18.1289 16.5205 17.9713 16.5343 17.8046 16.5865C17.6378 16.6386 17.4667 16.7493 17.2911 16.9184C17.0507 17.15 16.9037 17.3984 16.8502 17.6637C16.7968 17.9255 16.8514 18.1409 17.014 18.3096C17.1585 18.4597 17.3272 18.5256 17.5201 18.5074C17.713 18.4893 17.9533 18.3975 18.241 18.2321L18.9621 17.8135C19.3954 17.5604 19.7828 17.4387 20.1242 17.4485C20.4639 17.4565 20.766 17.5977 21.0304 17.8722C21.2472 18.0973 21.3763 18.3609 21.4175 18.663C21.4605 18.9635 21.4161 19.2758 21.2845 19.5998C21.1529 19.9239 20.9345 20.2329 20.6293 20.5269C20.2286 20.9129 19.8133 21.1454 19.3832 21.2244C18.9531 21.3035 18.5421 21.2096 18.1503 20.9428L18.5852 20.2477C18.8434 20.4065 19.0993 20.4657 19.3529 20.4252C19.6082 20.3831 19.8594 20.243 20.1066 20.0048C20.3879 19.7338 20.5538 19.4589 20.6042 19.1803C20.6547 18.8983 20.5986 18.6729 20.436 18.5041C20.3046 18.3677 20.1468 18.2994 19.9626 18.2993C19.7768 18.2975 19.5628 18.3689 19.3207 18.5134L18.5182 18.9907C18.0763 19.252 17.6848 19.3745 17.3435 19.358C17.0023 19.3383 16.7011 19.1929 16.44 18.9218C16.2265 18.7001 16.0998 18.4441 16.06 18.1537C16.0219 17.8617 16.0643 17.5628 16.1872 17.257C16.3118 16.9496 16.5123 16.6628 16.7885 16.3967C17.1772 16.0222 17.5645 15.8135 17.9504 15.7704C18.338 15.7258 18.7134 15.7981 19.0765 15.9873ZM21.4137 12.7078L21.8259 13.2862L19.524 14.9267L19.1118 14.3483L21.4137 12.7078ZM19.0242 12.806L19.7067 12.3196L22.724 16.5533C22.8614 16.7461 22.9924 16.8707 23.117 16.9273C23.2422 16.9805 23.3608 16.9919 23.4728 16.9615C23.5854 16.9278 23.6918 16.8752 23.7921 16.8037C23.8673 16.7502 23.9262 16.7023 23.9689 16.6603C24.0103 16.6163 24.0433 16.5811 24.0681 16.5547L24.6439 17.0688C24.61 17.1192 24.5577 17.1825 24.4872 17.259C24.418 17.3373 24.3198 17.4219 24.1926 17.5125C23.9998 17.6499 23.7813 17.7431 23.5372 17.7922C23.2949 17.8398 23.0526 17.8221 22.8103 17.739C22.5698 17.6545 22.3575 17.4831 22.1734 17.2247L19.0242 12.806ZM27.2576 15.862C26.791 16.1038 26.3351 16.2094 25.8899 16.1788C25.4458 16.145 25.0359 15.9895 24.6602 15.7122C24.2856 15.4317 23.9697 15.0434 23.7126 14.5474C23.4556 14.0513 23.3194 13.5673 23.3041 13.0953C23.2898 12.62 23.3905 12.1919 23.6063 11.8107C23.8231 11.4264 24.1501 11.121 24.5873 10.8944C24.8396 10.7637 25.1104 10.6766 25.3999 10.6333C25.6894 10.5899 25.9841 10.6105 26.2839 10.6951C26.5826 10.7776 26.872 10.9423 27.1519 11.1892C27.4318 11.4361 27.6889 11.7855 27.9231 12.2374L28.0865 12.5527L24.3534 14.4873L24.0201 13.8441L26.9965 12.3017C26.8549 12.0284 26.6739 11.8129 26.4534 11.6552C26.2351 11.4963 25.994 11.4066 25.7301 11.3861C25.4682 11.3645 25.2028 11.4234 24.9337 11.5628C24.6373 11.7164 24.419 11.9228 24.2788 12.1822C24.1395 12.4383 24.0726 12.713 24.0779 13.0062C24.0832 13.2995 24.155 13.5795 24.2933 13.8465L24.5155 14.2753C24.7051 14.641 24.9288 14.9184 25.1867 15.1074C25.4456 15.2932 25.7229 15.3934 26.0186 15.4082C26.3131 15.4209 26.6107 15.3494 26.9112 15.1936C27.1067 15.0923 27.2691 14.9735 27.3985 14.8371C27.5288 14.6976 27.6229 14.5422 27.6808 14.3708C27.7376 14.1974 27.7539 14.0103 27.7298 13.8095L28.5533 13.6387C28.604 13.9218 28.5879 14.2021 28.5051 14.4796C28.4212 14.7551 28.2745 15.0124 28.0652 15.2515C27.8547 15.4886 27.5855 15.6921 27.2576 15.862ZM32.199 13.7303L30.7939 6.59456L31.658 6.42442L32.3551 9.9644L32.4387 9.94793L34.9472 5.77677L36.076 5.55448L33.7135 9.36393L37.4811 12.6902L36.4358 12.896L33.3019 10.0675L32.6076 11.2466L33.0631 13.5601L32.199 13.7303ZM39.6194 12.8966C39.127 12.8974 38.6947 12.781 38.3227 12.5472C37.953 12.3134 37.6636 11.986 37.4546 11.565C37.2479 11.1439 37.1441 10.6516 37.1432 10.0882C37.1422 9.52001 37.2444 9.02387 37.4497 8.59976C37.6573 8.17565 37.9456 7.8461 38.3145 7.61112C38.6858 7.37614 39.1177 7.25824 39.6101 7.25743C40.1025 7.25662 40.5336 7.37309 40.9033 7.60686C41.2754 7.84062 41.5647 8.16922 41.7714 8.59265C41.9804 9.01608 42.0854 9.51188 42.0864 10.0801C42.0873 10.6435 41.9839 11.1361 41.7763 11.5578C41.571 11.9796 41.2827 12.3079 40.9114 12.5429C40.5425 12.7779 40.1118 12.8958 39.6194 12.8966ZM39.6182 12.1438C39.9922 12.1432 40.2998 12.0468 40.541 11.8546C40.7821 11.6625 40.9605 11.41 41.076 11.0973C41.1914 10.7847 41.2489 10.446 41.2483 10.0814C41.2477 9.71686 41.1891 9.37723 41.0726 9.06255C40.9561 8.74787 40.7769 8.49367 40.5351 8.29994C40.2933 8.10621 39.9854 8.00965 39.6114 8.01027C39.2373 8.01088 38.9297 8.10845 38.6885 8.30298C38.4474 8.4975 38.2691 8.7523 38.1536 9.06735C38.0381 9.38241 37.9807 9.72223 37.9813 10.0868C37.9819 10.4514 38.0404 10.7898 38.1569 11.1022C38.2734 11.4145 38.4526 11.6663 38.6944 11.8577C38.9362 12.049 39.2441 12.1444 39.6182 12.1438ZM47.2518 9.35857L46.4734 9.43763C46.4486 9.30584 46.401 9.17364 46.3306 9.04103C46.263 8.9065 46.1591 8.7872 46.0188 8.68312C45.8785 8.57904 45.6882 8.50582 45.4481 8.46347C45.1194 8.40548 44.8321 8.43294 44.5862 8.54582C44.343 8.65679 44.2011 8.82768 44.1604 9.05849C44.1242 9.26366 44.1702 9.43885 44.2985 9.58408C44.4267 9.7293 44.6424 9.86951 44.9455 10.0047L45.7083 10.3412C46.168 10.5425 46.4944 10.7839 46.6875 11.0656C46.881 11.345 46.9447 11.6723 46.8785 12.0477C46.8242 12.3554 46.6871 12.6149 46.4671 12.8261C46.2495 13.0377 45.971 13.1857 45.6316 13.2701C45.2922 13.3545 44.9138 13.3599 44.4965 13.2863C43.9486 13.1896 43.5161 12.9907 43.199 12.6896C42.8819 12.3885 42.7158 12.001 42.7009 11.5272L43.5188 11.4695C43.5424 11.7717 43.6452 12.0134 43.8272 12.1946C44.0115 12.3762 44.2727 12.4968 44.6108 12.5564C44.9955 12.6242 45.3153 12.5965 45.5702 12.4732C45.8279 12.348 45.9771 12.1699 46.0178 11.9391C46.0507 11.7526 46.013 11.5849 45.9046 11.436C45.7967 11.2847 45.613 11.1538 45.3537 11.0431L44.4954 10.6754C44.024 10.472 43.6945 10.2276 43.5069 9.94208C43.322 9.65465 43.2623 9.32558 43.3277 8.95488C43.3811 8.6518 43.5135 8.39869 43.7248 8.19557C43.9385 7.99286 44.2051 7.85117 44.5246 7.7705C44.8465 7.69025 45.1962 7.68343 45.5739 7.75005C46.1055 7.84381 46.5023 8.03399 46.7642 8.32059C47.0285 8.60761 47.1911 8.9536 47.2518 9.35857ZM51.2742 9.29167L51.0542 9.96697L48.3665 9.09138L48.5865 8.41608L51.2742 9.29167ZM49.7746 7.42874L50.5715 7.68833L48.9611 12.6315C48.8878 12.8566 48.8654 13.0361 48.894 13.1699C48.9256 13.3022 48.987 13.4043 49.078 13.4763C49.1721 13.5468 49.2777 13.6011 49.3947 13.6392C49.4825 13.6678 49.556 13.6868 49.6152 13.6961C49.6751 13.7032 49.7231 13.7089 49.7591 13.7131L49.6879 14.4817C49.6273 14.4844 49.5453 14.4801 49.4419 14.4688C49.3378 14.4598 49.2114 14.4311 49.0629 14.3827C48.8378 14.3093 48.6329 14.1891 48.4484 14.0219C48.2661 13.8554 48.1363 13.6501 48.059 13.4058C47.984 13.1622 47.9956 12.8896 48.0939 12.588L49.7746 7.42874ZM52.1836 15.8726C51.7132 15.6383 51.3591 15.3323 51.1214 14.9547C50.8868 14.576 50.7708 14.1532 50.7732 13.6863C50.7789 13.2183 50.9063 12.7343 51.1554 12.2342C51.4045 11.7341 51.7152 11.3387 52.0874 11.0481C52.4628 10.7563 52.8681 10.5853 53.3031 10.5349C53.7414 10.4834 54.1809 10.5674 54.6217 10.787C54.876 10.9137 55.106 11.0811 55.3117 11.2894C55.5174 11.4976 55.6744 11.7478 55.7829 12.0399C55.8924 12.3298 55.9299 12.6606 55.8955 13.0323C55.8612 13.4039 55.7305 13.8176 55.5035 14.2732L55.3452 14.591L51.5817 12.7164L51.9047 12.0679L54.9053 13.5626C55.0426 13.2871 55.1099 13.0139 55.1074 12.7428C55.107 12.4728 55.0373 12.2252 54.8982 11.9999C54.7613 11.7756 54.5572 11.596 54.286 11.4609C53.9872 11.312 53.6917 11.2574 53.3996 11.297C53.1106 11.3356 52.8493 11.4434 52.6155 11.6206C52.3818 11.7977 52.1979 12.0209 52.0639 12.29L51.8485 12.7223C51.6649 13.091 51.5727 13.4353 51.5722 13.755C51.5748 14.0737 51.6572 14.3568 51.8196 14.6043C51.983 14.8497 52.2162 15.0478 52.5193 15.1988C52.7163 15.2969 52.9081 15.358 53.0944 15.3821C53.284 15.4051 53.465 15.3895 53.6375 15.3352C53.8111 15.2789 53.9718 15.1818 54.1199 15.0439L54.7433 15.6083C54.5445 15.8161 54.3086 15.9684 54.0356 16.0652C53.7637 16.1598 53.4694 16.1931 53.1528 16.165C52.8372 16.1347 52.5142 16.0373 52.1836 15.8726ZM57.3836 15.0009L55.3934 17.6097L54.7271 17.1013L58.0355 12.7647L58.6792 13.2558L58.1623 13.9334L58.2188 13.9765C58.4884 13.8338 58.7777 13.7746 59.0867 13.7989C59.3971 13.8214 59.7161 13.9575 60.0436 14.2074C60.3373 14.4314 60.5482 14.6876 60.6765 14.9761C60.8063 15.2627 60.8397 15.574 60.7768 15.9102C60.7154 16.2444 60.5439 16.596 60.2625 16.9649L58.1603 19.7205L57.494 19.2122L59.5617 16.5018C59.8216 16.1611 59.9356 15.8282 59.9037 15.5031C59.8733 15.1762 59.7037 14.8949 59.395 14.6594C59.1823 14.4972 58.957 14.3983 58.7192 14.3627C58.4832 14.3286 58.2497 14.3633 58.0187 14.467C57.7877 14.5707 57.576 14.7487 57.3836 15.0009ZM64.5514 20.2779L63.8834 19.8706C63.9432 19.7506 63.9851 19.6165 64.0092 19.4683C64.0366 19.3203 64.0258 19.1624 63.9769 18.9947C63.928 18.827 63.8207 18.6537 63.6549 18.4748C63.428 18.23 63.1825 18.0783 62.9183 18.0197C62.6575 17.9612 62.4412 18.0116 62.2693 18.171C62.1165 18.3126 62.0473 18.48 62.0618 18.6732C62.0762 18.8664 62.1634 19.1084 62.3232 19.3993L62.7277 20.1283C62.9724 20.5664 63.0866 20.9561 63.0703 21.2972C63.0558 21.6367 62.9087 21.936 62.6292 22.1951C62.4 22.4076 62.1339 22.5315 61.8311 22.5669C61.5298 22.604 61.2184 22.5537 60.897 22.4158C60.5755 22.278 60.2708 22.0537 59.9827 21.7429C59.6045 21.3348 59.3801 20.9151 59.3093 20.4835C59.2386 20.052 59.3404 19.6429 59.6147 19.2563L60.3013 19.7045C60.1375 19.9596 60.0734 20.2143 60.109 20.4686C60.1462 20.7247 60.2814 20.9786 60.5148 21.2303C60.7803 21.5168 61.0519 21.688 61.3296 21.7437C61.6106 21.7996 61.837 21.7479 62.0089 21.5886C62.1478 21.4599 62.2191 21.3034 62.2227 21.1193C62.2281 20.9335 62.1609 20.7182 62.0211 20.4734L61.5594 19.6618C61.3066 19.215 61.1917 18.8211 61.2147 18.4802C61.2411 18.1395 61.3923 17.8412 61.6683 17.5853C61.8941 17.3761 62.1525 17.2544 62.4436 17.2202C62.7363 17.1878 63.0344 17.2359 63.3377 17.3647C63.6427 17.4952 63.9255 17.7011 64.1862 17.9824C64.5531 18.3783 64.7544 18.7695 64.79 19.1562C64.8272 19.5446 64.7476 19.9185 64.5514 20.2779ZM62.9995 25.66C62.7202 25.2316 62.581 24.7968 62.5816 24.3555C62.5822 23.9142 62.7058 23.4946 62.9522 23.0966C63.1986 22.6986 63.5499 22.351 64.0061 22.0537C64.4702 21.7512 64.9353 21.5695 65.4015 21.5087C65.871 21.4485 66.3061 21.5069 66.7068 21.6838C67.1107 21.8613 67.4471 22.1563 67.716 22.5689C67.9254 22.8902 68.0547 23.2185 68.1037 23.5539C68.1528 23.8893 68.1239 24.2091 68.0169 24.5134C67.91 24.8176 67.7267 25.0826 67.467 25.3084L67.0093 24.6063C67.1827 24.417 67.2896 24.1778 67.33 23.8887C67.3737 23.6002 67.2947 23.3013 67.0931 22.9919C66.9147 22.7182 66.6869 22.5247 66.4096 22.4115C66.1357 22.299 65.8323 22.2693 65.4995 22.3223C65.1699 22.376 64.8326 22.5153 64.4875 22.7402C64.1345 22.9703 63.8633 23.2262 63.6739 23.5079C63.4857 23.7916 63.3859 24.0828 63.3742 24.3815C63.3639 24.6821 63.4492 24.9712 63.6302 25.2489C63.7491 25.4314 63.8888 25.5763 64.0492 25.6837C64.2096 25.7911 64.3829 25.8575 64.5692 25.8831C64.7554 25.9087 64.946 25.889 65.141 25.824L65.5987 26.5261C65.3031 26.6623 64.9961 26.7225 64.6778 26.7067C64.3628 26.6916 64.0584 26.5975 63.7647 26.4244C63.4743 26.2519 63.2192 25.9972 62.9995 25.66ZM67.838 27.4059L64.8019 28.6504L64.4841 27.8749L71.2134 25.1167L71.5313 25.8921L69.0603 26.9049L69.0873 26.9706C69.3964 26.9821 69.6762 27.0747 69.9265 27.2484C70.1799 27.4234 70.3878 27.7092 70.5503 28.1057C70.6913 28.4496 70.7458 28.7791 70.7137 29.0941C70.6838 29.4083 70.5568 29.6945 70.3326 29.9527C70.1114 30.2122 69.784 30.4308 69.3503 30.6086L66.1433 31.9231L65.8255 31.1476L68.9799 29.8547C69.3807 29.6904 69.6481 29.4593 69.7818 29.1614C69.9187 28.8648 69.9121 28.5336 69.7622 28.1677C69.658 27.9136 69.511 27.7078 69.321 27.5503C69.132 27.3949 68.9107 27.3014 68.6572 27.2697C68.4046 27.2402 68.1315 27.2856 67.838 27.4059ZM66.6017 34.342C66.5303 34.0038 66.5292 33.6834 66.5984 33.3809C66.6699 33.0779 66.8102 32.8196 67.0192 32.6061C67.2305 32.3921 67.5098 32.2484 67.8573 32.1751C68.1631 32.1105 68.4236 32.1184 68.639 32.1988C68.8567 32.2786 69.0412 32.4078 69.1927 32.5864C69.3441 32.7649 69.4721 32.9701 69.5767 33.2021C69.6842 33.4359 69.7803 33.6733 69.865 33.9143C69.9752 34.2298 70.062 34.4861 70.1254 34.6832C70.1916 34.8822 70.2611 35.0223 70.3339 35.1038C70.4072 35.1875 70.5099 35.2154 70.642 35.1875L70.6698 35.1817C71.0126 35.1093 71.2592 34.9592 71.4095 34.7315C71.5603 34.5061 71.5958 34.2046 71.5161 33.827C71.4335 33.4356 71.283 33.1467 71.0646 32.9606C70.8462 32.7744 70.6302 32.6567 70.4166 32.6074L70.5302 31.7704C70.8839 31.8409 71.1755 31.9729 71.4051 32.1664C71.6374 32.3617 71.8186 32.5896 71.9486 32.8501C72.0815 33.1124 72.1762 33.3779 72.233 33.6466C72.2692 33.818 72.2899 34.0193 72.2951 34.2505C72.3032 34.4835 72.2667 34.7175 72.1856 34.9523C72.105 35.1895 71.9532 35.4043 71.73 35.5966C71.5069 35.7889 71.1834 35.9298 70.7595 36.0193L67.2433 36.7617L67.0701 35.9417L67.7928 35.7891L67.784 35.7474C67.6565 35.7162 67.513 35.6498 67.3536 35.5479C67.1942 35.4461 67.0454 35.2972 66.9072 35.1014C66.7691 34.9055 66.6673 34.6524 66.6017 34.342ZM67.3647 34.3116C67.4332 34.6358 67.5546 34.8957 67.729 35.0912C67.9038 35.289 68.104 35.4234 68.3295 35.4943C68.5554 35.5676 68.7796 35.5807 69.002 35.5338L69.7525 35.3753C69.7034 35.3494 69.6491 35.281 69.5894 35.1702C69.5325 35.0612 69.4752 34.933 69.4174 34.7855C69.3625 34.6398 69.3106 34.4971 69.2617 34.3574C69.2157 34.2196 69.1776 34.1078 69.1474 34.0223C69.0746 33.815 68.9874 33.6254 68.8857 33.4533C68.7869 33.283 68.6641 33.1541 68.5173 33.0665C68.3734 32.9807 68.1972 32.9599 67.9887 33.0039C67.7038 33.064 67.5107 33.2149 67.4092 33.4565C67.3106 33.6999 67.2958 33.9849 67.3647 34.3116ZM72.8534 32.5284C72.8226 32.3825 72.8508 32.241 72.938 32.1041C73.0281 31.9689 73.146 31.8859 73.292 31.8551C73.4518 31.8214 73.5956 31.8491 73.7233 31.9383C73.8538 32.0293 73.9345 32.1477 73.9653 32.2937C73.999 32.4535 73.9736 32.5968 73.8891 32.7235C73.8073 32.8521 73.6865 32.9332 73.5267 32.967C73.3808 32.9978 73.2398 32.9719 73.1038 32.8893C72.9706 32.8086 72.8872 32.6883 72.8534 32.5284ZM73.276 34.5298C73.2452 34.3838 73.2734 34.2424 73.3606 34.1054C73.4506 33.9703 73.5686 33.8873 73.7145 33.8565C73.8743 33.8227 74.0181 33.8504 74.1458 33.9396C74.2763 34.0306 74.357 34.1491 74.3878 34.295C74.4216 34.4548 74.3962 34.5981 74.3116 34.7249C74.2299 34.8534 74.1091 34.9346 73.9493 34.9683C73.8033 34.9991 73.6624 34.9732 73.5264 34.8906C73.3932 34.8099 73.3097 34.6896 73.276 34.5298ZM72.9807 39.7567L72.2721 39.8043L72.0829 36.9839L72.7916 36.9364L72.9807 39.7567ZM74.1506 37.6709L74.2067 38.5071L69.0195 38.855C68.7833 38.8709 68.6084 38.917 68.4949 38.9934C68.3839 39.0721 68.312 39.1671 68.2791 39.2784C68.2487 39.392 68.2377 39.5102 68.2459 39.633C68.2521 39.7251 68.2619 39.8004 68.2753 39.8588C68.2911 39.9171 68.3037 39.9637 68.3132 39.9986L67.5734 40.2191C67.5484 40.1638 67.5218 40.0861 67.4937 39.986C67.4633 39.886 67.4428 39.758 67.4324 39.6021C67.4165 39.3659 67.4518 39.131 67.5382 38.8975C67.6247 38.6662 67.7669 38.4693 67.9648 38.3065C68.1628 38.1461 68.4201 38.0553 68.7366 38.0341L74.1506 37.6709ZM67.5255 40.6817L68.1626 40.7336L71.8753 44.143L71.9319 44.1476L72.1753 41.1603L72.954 41.2238L72.6229 45.287L71.9575 45.2328L68.2662 41.9107L68.2096 41.9061L67.9569 45.0066L67.1783 44.9431L67.5255 40.6817ZM68.3285 49.46L71.4463 50.2825L71.2325 51.0928L65.9584 49.7016L66.1722 48.8912L67.0649 49.1267L67.0794 49.0718C66.8442 48.8775 66.6672 48.6252 66.5483 48.3147C66.4317 48.0048 66.4259 47.6507 66.531 47.2524C66.618 46.9228 66.7674 46.6488 66.9792 46.4305C67.1933 46.2127 67.4662 46.0692 67.7979 46C68.1318 45.9314 68.5231 45.9563 68.9718 46.0746L72.3231 46.9587L72.1093 47.769L68.813 46.8995C68.4284 46.798 68.0933 46.8247 67.8076 46.9795C67.5213 47.1366 67.3338 47.3834 67.2451 47.7199C67.1919 47.9213 67.1894 48.1398 67.2374 48.3753C67.2849 48.613 67.3964 48.831 67.5718 49.0291C67.7466 49.2294 67.9989 49.3731 68.3285 49.46ZM68.261 52.6527L65.3085 51.2211L65.6741 50.467L70.5822 52.8468L70.2289 53.5753L69.462 53.2035L69.4311 53.2674C69.6245 53.5033 69.7401 53.775 69.7777 54.0827C69.8175 54.3914 69.7475 54.7311 69.5678 55.1017C69.4066 55.434 69.1975 55.6918 68.9403 55.8749C68.6852 56.0591 68.3867 56.1538 68.0448 56.159C67.705 56.1652 67.3263 56.0671 66.9088 55.8647L63.7902 54.3526L64.1558 53.5985L67.2233 55.0858C67.6089 55.2728 67.9578 55.3183 68.27 55.2224C68.5844 55.1275 68.8263 54.9054 68.9957 54.556C69.1124 54.3153 69.1645 54.0748 69.1521 53.8346C69.1386 53.5965 69.0581 53.3746 68.9105 53.1689C68.7629 52.9632 68.5464 52.7911 68.261 52.6527ZM60.3065 55.5691C60.5467 55.2432 60.7951 54.994 61.0517 54.8214C61.3064 54.6474 61.559 54.5321 61.8095 54.4755C62.0567 54.4195 62.2902 54.4019 62.5101 54.4228L62.4913 55.2383C62.3663 55.2403 62.218 55.2501 62.0462 55.2676C61.8726 55.2838 61.688 55.3447 61.4924 55.4505C61.2934 55.5568 61.0963 55.7424 60.9011 56.0073C60.6398 56.3618 60.51 56.7175 60.5115 57.0745C60.5131 57.4315 60.6968 57.7449 61.0627 58.0146L61.9546 58.6719L61.9967 58.6147C61.9532 58.5062 61.9061 58.3627 61.8554 58.1841C61.8051 58.0088 61.7968 57.8027 61.8303 57.5657C61.8644 57.332 61.9867 57.0722 62.1974 56.7863C62.4587 56.4318 62.7771 56.1754 63.1527 56.0169C63.5269 55.8604 63.9344 55.8182 64.3754 55.8903C64.8149 55.9643 65.2634 56.1698 65.7208 56.5069C66.1705 56.8384 66.5039 57.2061 66.7208 57.6101C66.9396 58.0155 67.0365 58.4266 67.0116 58.8435C66.9886 59.2618 66.8408 59.6558 66.5683 60.0255C66.3576 60.3114 66.1428 60.5031 65.9239 60.6005C65.7056 60.7013 65.5033 60.7522 65.3172 60.7533C65.1317 60.7577 64.9825 60.7566 64.8698 60.75L64.8192 60.8186L65.5167 61.3326L65.0363 61.9844L60.5198 58.6555C60.1424 58.3774 59.8988 58.0655 59.7889 57.7198C59.6757 57.3746 59.6699 57.0174 59.7715 56.6482C59.8697 56.2794 60.0481 55.9197 60.3065 55.5691ZM62.736 57.3244C62.5366 57.5951 62.4299 57.8694 62.4162 58.1475C62.4024 58.4255 62.4759 58.6988 62.6368 58.9674C62.7976 59.2359 63.0401 59.4896 63.364 59.7284C63.6804 59.9616 63.9947 60.1197 64.3069 60.2028C64.6192 60.2859 64.9128 60.2846 65.1876 60.199C65.4625 60.1134 65.701 59.9333 65.9033 59.6589C66.114 59.3731 66.2172 59.0815 66.2128 58.7841C66.207 58.4887 66.1173 58.2035 65.9436 57.9284C65.7685 57.6552 65.5323 57.4091 65.235 57.19C64.9301 56.9652 64.6253 56.8141 64.3206 56.7366C64.0165 56.6625 63.7282 56.6706 63.4558 56.7609C63.1838 56.8546 62.9439 57.0424 62.736 57.3244ZM56.4488 62.4241C56.8643 62.1023 57.2937 61.9164 57.7371 61.8664C58.1801 61.8197 58.6113 61.8989 59.0308 62.1041C59.4498 62.3125 59.8304 62.6376 60.1725 63.0793C60.5147 63.521 60.7357 63.9726 60.8358 64.4342C60.9353 64.8991 60.9133 65.3384 60.7696 65.7521C60.6255 66.1692 60.3588 66.5285 59.9696 66.8301C59.745 67.004 59.4942 67.1384 59.2172 67.2332C58.9402 67.3279 58.6467 67.3607 58.3365 67.3314C58.0278 67.304 57.7136 67.1941 57.3938 67.0016C57.074 66.8091 56.7582 66.5117 56.4465 66.1093L56.2291 65.8286L59.553 63.2537L59.9966 63.8264L57.3465 65.8793C57.5349 66.1226 57.7518 66.3021 57.997 66.4176C58.2403 66.5345 58.4936 66.5794 58.757 66.5521C59.0184 66.5262 59.269 66.4205 59.5085 66.2349C59.7724 66.0305 59.95 65.7881 60.0413 65.5078C60.1322 65.2308 60.1486 64.9485 60.0906 64.661C60.0326 64.3735 59.9116 64.111 59.7275 63.8733L59.4317 63.4915C59.1794 63.1658 58.9094 62.9332 58.6217 62.7938C58.3336 62.6576 58.0428 62.6089 57.7493 62.6475C57.4573 62.6881 57.1775 62.812 56.9098 63.0193C56.7358 63.1541 56.5974 63.3003 56.4947 63.4576C56.3916 63.6184 56.327 63.7882 56.3009 63.9671C56.2763 64.1479 56.2939 64.3349 56.3537 64.5282L55.5745 64.8443C55.4737 64.575 55.439 64.2964 55.4705 64.0085C55.5035 63.7224 55.6014 63.4429 55.7643 63.17C55.9287 62.8989 56.1568 62.6503 56.4488 62.4241ZM54.1363 64.2649L56.7767 69.0378L56.0682 69.4297L55.6694 68.7088L55.6197 68.7363C55.6633 69.0206 55.6119 69.2993 55.4654 69.5724C55.3189 69.8456 55.1027 70.0612 54.8168 70.2194C54.763 70.2492 54.6951 70.2854 54.6131 70.328C54.5312 70.3706 54.4684 70.4013 54.4246 70.4201L54.0121 69.6743C54.0404 69.6668 54.1025 69.6446 54.1984 69.6077C54.2935 69.5741 54.3897 69.5304 54.487 69.4765C54.719 69.3482 54.8993 69.1849 55.0277 68.9867C55.1552 68.7917 55.2248 68.58 55.2365 68.3517C55.2472 68.1266 55.193 67.9063 55.0738 67.6909L53.403 64.6705L54.1363 64.2649ZM51.6882 69.106L50.5353 66.034L51.3199 65.7395L53.8754 72.5485L53.0908 72.843L52.1524 70.3428L52.0859 70.3678C52.0652 70.6765 51.9643 70.9533 51.7832 71.1983C51.6006 71.4463 51.3088 71.6456 50.9076 71.7962C50.5596 71.9268 50.2286 71.9714 49.9147 71.9299C49.6016 71.8906 49.3193 71.7551 49.0679 71.5232C48.8152 71.2944 48.6064 70.9606 48.4417 70.5217L47.2239 67.2768L48.0085 66.9824L49.2064 70.1741C49.3586 70.5797 49.5816 70.8538 49.8754 70.9964C50.1677 71.1421 50.499 71.1454 50.8691 71.0065C51.1262 70.91 51.3364 70.7692 51.4995 70.5841C51.6605 70.3998 51.7606 70.1814 51.7998 69.929C51.8369 69.6773 51.7997 69.403 51.6882 69.106ZM44.826 67.6328C45.1668 67.5749 45.4869 67.5865 45.7865 67.6677C46.0864 67.7512 46.3389 67.9016 46.5439 68.1189C46.7493 68.3386 46.8818 68.6235 46.9413 68.9735C46.9936 69.2816 46.9754 69.5417 46.8865 69.7537C46.7981 69.968 46.6616 70.1473 46.4772 70.2915C46.2928 70.4357 46.0826 70.5554 45.8467 70.6508C45.6088 70.7488 45.3677 70.8354 45.1235 70.9105C44.8039 71.008 44.5444 71.0845 44.3449 71.14C44.1435 71.1983 44.0006 71.2622 43.9164 71.3317C43.8298 71.4017 43.7978 71.5031 43.8204 71.6362L43.8252 71.6642C43.8839 72.0096 44.024 72.262 44.2456 72.4212C44.4648 72.5809 44.7647 72.6284 45.1451 72.5638C45.5395 72.4968 45.8341 72.3579 46.0288 72.1471C46.2236 71.9363 46.3498 71.7251 46.4075 71.5136L47.2393 71.6605C47.1548 72.011 47.0113 72.2971 46.8088 72.5188C46.6044 72.7433 46.3695 72.9153 46.104 73.0348C45.8366 73.1571 45.5676 73.2412 45.2968 73.2872C45.1241 73.3166 44.9222 73.3293 44.691 73.3253C44.4578 73.3241 44.2255 73.2783 43.994 73.188C43.7602 73.098 43.5517 72.9377 43.3684 72.7071C43.1852 72.4765 43.0573 72.1477 42.9847 71.7205L42.3827 68.1776L43.209 68.0372L43.3327 68.7654L43.3747 68.7582C43.4109 68.632 43.483 68.4913 43.5911 68.3361C43.6992 68.1808 43.8539 68.0381 44.0551 67.9078C44.2563 67.7776 44.5133 67.6859 44.826 67.6328ZM44.8261 68.3964C44.4993 68.4519 44.2348 68.5629 44.0326 68.7293C43.828 68.8962 43.6857 69.0908 43.6059 69.3133C43.5237 69.5362 43.5016 69.7597 43.5397 69.9837L43.6682 70.7399C43.696 70.692 43.7665 70.6404 43.8796 70.5851C43.9908 70.5326 44.1212 70.4805 44.2708 70.4286C44.4186 70.3795 44.5632 70.3333 44.7048 70.2901C44.8444 70.2495 44.9575 70.2159 45.0442 70.1892C45.2542 70.1247 45.4472 70.0451 45.6232 69.9503C45.7973 69.8583 45.931 69.7407 46.0243 69.5976C46.1157 69.4572 46.1436 69.282 46.1079 69.0719C46.0591 68.7848 45.9161 68.5858 45.6787 68.4749C45.4394 68.3666 45.1552 68.3405 44.8261 68.3964ZM40.8083 75.5938L40.4811 68.3284L41.3184 68.2907L41.6456 75.5561L40.8083 75.5938ZM36.6513 73.653L36.6872 72.9437L39.5103 73.0864L39.4744 73.7957L36.6513 73.653ZM38.5856 75.0593L37.7486 75.017L38.0111 69.8247C38.023 69.5883 37.9977 69.4092 37.9351 69.2875C37.8701 69.1681 37.7841 69.0855 37.6774 69.0398C37.5682 68.9964 37.4521 68.9716 37.3292 68.9653C37.237 68.9607 37.1611 68.9616 37.1015 68.9681C37.0418 68.9769 36.994 68.984 36.9582 68.9893L36.8259 68.2288C36.8838 68.2104 36.964 68.1931 37.0668 68.1769C37.1697 68.1584 37.2991 68.1531 37.4552 68.161C37.6916 68.173 37.9207 68.2355 38.1426 68.3487C38.3621 68.4617 38.541 68.626 38.6795 68.8416C38.8155 69.0571 38.8756 69.3232 38.8596 69.6401L38.5856 75.0593ZM34.0613 67.534C34.5765 67.6382 34.9978 67.8419 35.3253 68.1449C35.6501 68.4497 35.8719 68.828 35.9906 69.2795C36.1066 69.7329 36.1091 70.2335 35.9983 70.7811C35.8874 71.3287 35.69 71.7911 35.4059 72.1684C35.119 72.5475 34.772 72.8179 34.3649 72.9794C33.955 73.1428 33.5088 73.1757 33.0261 73.078C32.7477 73.0216 32.4821 72.9196 32.2294 72.7718C31.9767 72.624 31.7601 72.4232 31.5797 72.1693C31.3987 71.9177 31.2766 71.608 31.2134 71.2401C31.1502 70.8722 31.169 70.4388 31.27 69.94L31.3405 69.5919L35.4614 70.426L35.3177 71.1361L32.0321 70.471C31.971 70.7727 31.9769 71.054 32.0496 71.3151C32.1201 71.5758 32.2516 71.7969 32.4444 71.9784C32.6348 72.1594 32.8785 72.28 33.1755 72.3401C33.5027 72.4063 33.8022 72.3824 34.0741 72.2684C34.3431 72.1562 34.5676 71.9842 34.7473 71.7525C34.9271 71.5208 35.0468 71.2575 35.1064 70.9629L35.2022 70.4895C35.2839 70.0858 35.2836 69.7294 35.2012 69.4205C35.116 69.1134 34.9629 68.8614 34.7419 68.6645C34.5204 68.4699 34.2438 68.339 33.912 68.2718C33.6962 68.2282 33.4952 68.2189 33.3089 68.244C33.1199 68.2709 32.9491 68.333 32.7966 68.4301C32.6436 68.5296 32.5136 68.6651 32.4064 68.8367L31.6579 68.4533C31.7959 68.201 31.9842 67.9928 32.2228 67.8285C32.4608 67.6665 32.7364 67.5581 33.0495 67.5031C33.3621 67.4504 33.6994 67.4607 34.0613 67.534ZM29.2637 69.7253L30.5075 66.6889L31.283 67.0066L29.2154 72.0541L28.4662 71.7471L28.7892 70.9585L28.7235 70.9316C28.5002 71.1394 28.2362 71.2718 27.9315 71.3286C27.6259 71.3876 27.2825 71.339 26.9014 71.1829C26.5596 71.0429 26.2893 70.8503 26.0904 70.6051C25.8906 70.3621 25.7774 70.0701 25.7508 69.7292C25.7232 69.3904 25.7974 69.0063 25.9733 68.577L27.2871 65.3697L28.0627 65.6874L26.7704 68.8421C26.608 69.2386 26.5844 69.5897 26.6997 69.8953C26.8141 70.2031 27.0509 70.4306 27.4102 70.5778C27.6577 70.6792 27.901 70.7161 28.1399 70.6887C28.3767 70.6603 28.5931 70.566 28.7892 70.4059C28.9853 70.2457 29.1435 70.0188 29.2637 69.7253Z" fill="#F5F2EE"/>
<defs>
<clipPath id="clip0_331_1177">
<rect x="16.2051" y="16" width="48" height="48" rx="24" fill="white"/>
</clipPath>
<clipPath id="clip1_331_1177">
<rect width="15" height="14" fill="white" transform="translate(33.2051 33)"/>
</clipPath>
</defs>
</svg>
